<?xml version="1.0" encoding="utf-8"?>
<svg viewBox="113.115 44.817 272.4 23.7" xmlns="http://www.w3.org/2000/svg">
  <g transform="matrix(1, 0, 0, 1, 29.414967, 25.816772)">
    <g style="">
      <g>
        <path class="st4" d="M104.4,19.5v23.1h-3.3V27.5l-4.6,4.6l-1.1,1.1l-1.3,1.3L87,27.4l0,0l-3.3-3.3v-4.7l10.4,10.4L104.4,19.5z M83.7,22.7L87,27v15.7h-3.3V22.7z" style="fill: rgb(255, 255, 255);"/>
        <path class="st4" d="M122.7,25.3l2.2,4l-7.4,13.3h-4.4L122.7,25.3z M138.9,42.6h-4.4L126,27.3l-2.2-4l2.2-4l0,0l2.2,4L138.9,42.6 z" style="fill: rgb(255, 255, 255);"/>
        <path class="st4" d="M138.9,42.6h-4.4l-7.4-13.3l2.2-4L138.9,42.6z M123.8,23.3l2.2-4l0,0l2.2,4l-2.2,4l-8.5,15.3h-4.4 L123.8,23.3z" style="fill: rgb(255, 255, 255);"/>
        <path class="st4" d="M139.9,22.8v-3.3h20.7v3.3H139.9z M148.4,42.6V24.4h3.3v18.2H148.4z" style="fill: rgb(255, 255, 255);"/>
        <path class="st4" d="M190.8,42.6h-3.9l-6.7-11l-0.2-0.3l0,0c-0.1,0-0.1,0-0.2,0c0,0,0,0-0.1,0s-0.2,0-0.3,0.1 c-0.2,0-0.4,0.1-0.6,0.1c-0.1,0-0.1,0-0.2,0h-0.1c-0.1,0-0.1,0-0.2,0h-0.1c-0.1,0-0.2,0-0.2,0c-0.1,0-0.2,0-0.3,0l0,0 c-0.1,0-0.2,0-0.3,0l0,0c-0.1,0-0.1,0-0.2,0h-0.1c-0.1,0-0.2,0-0.2,0h-4.3v10.8h-3.3V19h19.2c0,0.3,0,0.5,0,0.8 c0,0.9-0.1,1.7-0.3,2.5c-0.5,2.2-1.6,4.2-3.2,5.7c-0.1,0.1-0.3,0.3-0.4,0.4c-0.1,0-0.1,0.1-0.2,0.1l0,0c-0.1,0.1-0.1,0.1-0.2,0.2 l-0.1,0.1l-0.1,0.1c-0.1,0.1-0.3,0.2-0.4,0.3c-0.1,0-0.1,0.1-0.2,0.1l0,0c-0.1,0-0.1,0.1-0.2,0.1l0,0c0,0,0,0-0.1,0l0.4,0.7 L190.8,42.6z M182.7,26.1c1-0.9,1.7-2.1,2.1-3.4h-12.2v5.7h4.3c1.1,0,2.3-0.2,3.3-0.7C181.1,27.4,182,26.8,182.7,26.1z" style="fill: rgb(255, 255, 255);"/>
        <path class="st4" d="M199.9,42.6V19.3h3.3v23.3H199.9z M199.9,19.4v23.3h3.3V19.4H199.9z M203.1,19.5H200v23h3.1V19.5z" style="fill: rgb(255, 255, 255);"/>
        <path class="st4" d="M220.1,32l2.1,2.8l-5.7,7.8h-4.2L220.1,32z M234.1,42.6h-4.2l-6.8-9.2l0,0l-2.1-2.8l0,0l-0.3-0.4l-7.9-10.8 h4.2l5.9,8l0.3,0.4l0.3-0.4l5.9-8h4.2l-7.9,10.8l-0.3,0.4L234.1,42.6z" style="fill: rgb(255, 255, 255);"/>
        <g class="st0" style="display: none;">
          <linearGradient id="SVGID_5_" gradientUnits="userSpaceOnUse" x1="243.5446" y1="36.8644" x2="357.9711" y2="58.7212" gradientTransform="matrix(1 0 0 -1 0 69.4468)">
            <stop offset="0" style="stop-color:#7c14ec"/>
            <stop offset="1" style="stop-color:#df1ac5"/>
          </linearGradient>
          <polygon class="st5" points="246.5,19.2 243.2,19.2 243.2,42.6 261.2,42.6 261.2,39.3 246.5,39.3 &#9;&#9;&#9;&#9;" style="fill: url(#SVGID_5_);"/>
          <linearGradient id="SVGID_6_" gradientUnits="userSpaceOnUse" x1="246.9559" y1="30.6183" x2="361.3824" y2="52.475" gradientTransform="matrix(1 0 0 -1 0 69.4468)">
            <stop offset="0" style="stop-color:#7c14ec"/>
            <stop offset="1" style="stop-color:#df1ac5"/>
          </linearGradient>
          <path class="st6" d="M282.7,21.2l-1-1.9l0,0l0,0l0,0l0,0l-1,1.9l-1.2,2.1l-10.7,19.3h4.4l0,0l3.6-6.6h9.6l3.6,6.6l0,0h4.4 l-10.7-19.3L282.7,21.2z M278.6,32.7l3-5.4l3,5.4H278.6z" style="fill: url(#SVGID_6_);"/>
          <linearGradient id="SVGID_7_" gradientUnits="userSpaceOnUse" x1="249.9119" y1="26.7558" x2="364.3383" y2="48.6126" gradientTransform="matrix(1 0 0 -1 0 69.4468)">
            <stop offset="0" style="stop-color:#7c14ec"/>
            <stop offset="1" style="stop-color:#df1ac5"/>
          </linearGradient>
          <path class="st7" d="M322,31c-0.3-0.3-0.7-0.5-1-0.7c0.2-0.3,0.5-0.6,0.6-0.9c0,0,0,0,0-0.1c0.5-1,0.9-2.1,0.9-3.3 s-0.3-2.3-0.8-3.2v-0.1c-1.1-2-3.3-3.3-5.8-3.3h-12.3v3.4h13c1.5,0.3,2.6,1.7,2.6,3.2c0,1.6-1.2,3-2.8,3.3h-9.5v-4.8h-3.3v18.1 h12.3c0.3,0,0.6,0,0.9-0.1c0.3,0,0.6,0.1,0.9,0.1c2.5,0,4.7-1.4,5.8-3.4c0.5-1,0.8-2.1,0.8-3.2c0-1.2-0.3-2.3-0.8-3.2 C323.1,32.1,322.6,31.5,322,31z M318.3,39.2h-11.4v-6.5h11.3c1.5,0.3,2.7,1.6,2.7,3.2C320.9,37.6,319.8,38.9,318.3,39.2z" style="fill: url(#SVGID_7_);"/>
          <linearGradient id="SVGID_8_" gradientUnits="userSpaceOnUse" x1="253.1818" y1="21.2496" x2="367.6083" y2="43.1064" gradientTransform="matrix(1 0 0 -1 0 69.4468)">
            <stop offset="0" style="stop-color:#7c14ec"/>
            <stop offset="1" style="stop-color:#df1ac5"/>
          </linearGradient>
          <path class="st8" d="M346.5,29.4h-6.7c-0.2,0-0.4,0-0.6,0c-0.1,0-0.2,0-0.3,0c-1.7-0.2-3-1.6-3-3.3c0-1.8,1.5-3.3,3.3-3.3h7.4 c1.7,0.1,3.1,1.4,3.2,3.1h3.4c0-1.1-0.3-2.2-0.9-3.1l0,0c-1.1-2-3.2-3.3-5.6-3.3c-0.1,0-0.1,0-0.2,0c-0.1,0-0.1,0-0.2,0h-7.1 c-2.5,0-4.6,1.3-5.8,3.3c-0.6,1-0.9,2.1-0.9,3.3s0.3,2.3,0.9,3.3c0.3,0.5,0.6,0.9,1,1.3c1.2,1.2,2.9,2,4.8,2h7.2 c1.8,0,3.3,1.5,3.3,3.3s-1.5,3.3-3.3,3.3h-7.2c-1.8,0-3.2-1.4-3.3-3.1h-3.4c0,1.1,0.3,2.2,0.9,3.1c1.1,2,3.3,3.3,5.8,3.3h7.2 c2.5,0,4.6-1.3,5.8-3.3c0.6-1,0.9-2.1,0.9-3.3s-0.3-2.3-0.9-3.3C351.1,30.7,349,29.4,346.5,29.4z" style="fill: url(#SVGID_8_);"/>
        </g>
      </g>
      <rect x="120.1" y="32.7" class="st4" width="11.1" height="3.3" style="fill: rgb(255, 255, 255);"/>
    </g>
    <g style="">
      <linearGradient id="SVGID_11_" gradientUnits="userSpaceOnUse" x1="241.8899" y1="37.2072" x2="371.592" y2="52.0157" gradientTransform="matrix(1 0 0 -1 0 69.4468)">
        <stop offset="0" style="stop-color:#7c14ec"/>
        <stop offset="1" style="stop-color:#df1ac5"/>
      </linearGradient>
      <path class="st11" d="M249.3,22.7h7.4c1.7,0.1,3.1,1.4,3.2,3.1h3.4c0-1.1-0.3-2.2-0.9-3.1l0,0c-1.1-2-3.2-3.3-5.6-3.4 c-0.1,0-0.1,0-0.2,0s-0.1,0-0.2,0h-7.1c-2.5,0-4.6,1.4-5.8,3.4c-0.6,1-0.9,2.1-0.9,3.3s0.3,2.3,0.9,3.3c0.3,0.5,0.6,0.9,1,1.3 c1.2,1.2,2.9,2,4.8,2h7.3c1.8,0,3.3,1.5,3.3,3.3s-1.5,3.3-3.3,3.3h-7.2c-1.8,0-3.2-1.4-3.3-3.1h-3.4c0,1.1,0.3,2.2,0.9,3.1 c1.1,2,3.3,3.4,5.8,3.4h7.2c2.5,0,4.6-1.4,5.8-3.4c0.6-1,0.9-2.1,0.9-3.3s-0.3-2.3-0.9-3.3c-1.1-2-3.3-3.4-5.8-3.4h-6.7 c-0.2,0-0.4,0-0.6,0c-0.1,0-0.2,0-0.3,0c-1.7-0.2-3-1.6-3-3.3C246,24.2,247.5,22.7,249.3,22.7z" style="fill: url(#SVGID_11_);"/>
      <linearGradient id="SVGID_12_" gradientUnits="userSpaceOnUse" x1="242.2709" y1="33.8696" x2="371.9731" y2="48.6781" gradientTransform="matrix(1 0 0 -1 0 69.4468)">
        <stop offset="0" style="stop-color:#7c14ec"/>
        <stop offset="1" style="stop-color:#df1ac5"/>
      </linearGradient>
      <polygon class="st12" points="293.1,34.4 288.3,23.7 286.5,19.6 286.4,19.6 284.6,23.7 279.8,34.4 273.1,19.6 269.4,19.6 &#10;&#9;&#9;&#9;277.9,38.5 279.8,42.6 281.6,38.5 286.4,27.8 291.3,38.5 293.1,42.6 295,38.5 303.5,19.6 299.8,19.6 &#9;&#9;" style="fill: url(#SVGID_12_);"/>
      <linearGradient id="SVGID_13_" gradientUnits="userSpaceOnUse" x1="243.0041" y1="27.4484" x2="372.7063" y2="42.2569" gradientTransform="matrix(1 0 0 -1 0 69.4468)">
        <stop offset="0" style="stop-color:#7c14ec"/>
        <stop offset="1" style="stop-color:#df1ac5"/>
      </linearGradient>
      <path class="st13" d="M356.1,25.6c0-3.3-2.6-6-5.9-6.2l0,0h-12.8v23.2h3.4V31.8h9.7l0,0C353.6,31.5,356.1,28.8,356.1,25.6z M350,28.4h-9.1v-5.7h8.9l0,0c0.1,0,0.1,0,0.2,0c1.6,0,2.8,1.3,2.8,2.8S351.5,28.4,350,28.4z" style="fill: url(#SVGID_13_);"/>
      <linearGradient id="SVGID_14_" gradientUnits="userSpaceOnUse" x1="241.7919" y1="29.3067" x2="371.4941" y2="44.1152" gradientTransform="matrix(1 0 0 -1 0 69.4468)">
        <stop offset="0" style="stop-color:#7c14ec"/>
        <stop offset="1" style="stop-color:#df1ac5"/>
      </linearGradient>
      <path class="st14" d="M316.7,21.2l-1-1.9l0,0l0,0l0,0l0,0l-1,1.9l-1.2,2.1l-10.7,19.3h4.4l0,0l3.6-6.6h9.6l3.6,6.6l0,0h4.4 l-10.7-19.3L316.7,21.2z M312.6,32.7l3-5.4l3,5.4H312.6z" style="fill: url(#SVGID_14_);"/>
    </g>
  </g>
</svg>