<?xml version="1.0" encoding="utf-8"?>
<svg viewBox="115.834 93.279 267.6 23.9" xmlns="http://www.w3.org/2000/svg">
  <g>
    <path class="st12" d="M 136.534 93.479 L 136.534 116.579 L 133.234 116.579 L 133.234 101.579 L 128.634 106.179 L 127.534 107.279 L 126.234 108.479 L 119.134 101.379 L 119.134 101.379 L 115.834 98.079 L 115.834 93.279 L 126.234 103.779 L 136.534 93.479 Z M 115.834 96.679 L 119.134 100.979 L 119.134 116.679 L 115.834 116.679 L 115.834 96.679 Z" style="fill: rgb(255, 255, 255);"/>
    <path class="st12" d="M 154.734 99.279 L 156.934 103.279 L 149.534 116.579 L 145.134 116.579 L 154.734 99.279 Z M 170.934 116.579 L 166.534 116.579 L 158.034 101.279 L 155.834 97.279 L 158.034 93.279 L 158.034 93.279 L 160.234 97.279 L 170.934 116.579 Z" style="fill: rgb(255, 255, 255);"/>
    <path class="st12" d="M 170.934 116.579 L 166.534 116.579 L 159.134 103.279 L 161.334 99.279 L 170.934 116.579 Z M 155.834 97.279 L 158.034 93.279 L 158.034 93.279 L 160.234 97.279 L 158.034 101.279 L 149.534 116.579 L 145.134 116.579 L 155.834 97.279 Z" style="fill: rgb(255, 255, 255);"/>
    <path class="st12" d="M 171.934 96.779 L 171.934 93.479 L 192.634 93.479 L 192.634 96.779 L 171.934 96.779 Z M 180.434 116.579 L 180.434 98.379 L 183.734 98.379 L 183.734 116.579 L 180.434 116.579 Z" style="fill: rgb(255, 255, 255);"/>
    <path class="st12" d="M 222.934 116.579 L 219.034 116.579 L 212.334 105.579 L 212.134 105.279 C 212.134 105.279 212.134 105.279 212.134 105.279 C 212.034 105.279 212.034 105.279 211.934 105.279 C 211.934 105.279 211.934 105.279 211.834 105.279 C 211.734 105.279 211.634 105.279 211.534 105.379 C 211.334 105.379 211.134 105.479 210.934 105.479 C 210.834 105.479 210.834 105.479 210.734 105.479 C 210.734 105.479 210.634 105.479 210.634 105.479 C 210.534 105.479 210.534 105.479 210.434 105.479 C 210.434 105.479 210.334 105.479 210.334 105.479 C 210.234 105.479 210.134 105.479 210.134 105.479 C 210.034 105.479 209.934 105.479 209.834 105.479 C 209.834 105.479 209.834 105.479 209.834 105.479 C 209.734 105.479 209.634 105.479 209.534 105.479 C 209.534 105.479 209.534 105.479 209.534 105.479 C 209.434 105.479 209.434 105.479 209.334 105.479 C 209.334 105.479 209.234 105.479 209.234 105.479 C 209.134 105.479 209.034 105.479 209.034 105.479 L 204.734 105.479 L 204.734 116.279 L 201.434 116.279 L 201.434 93.379 L 220.634 93.379 C 220.634 93.679 220.634 93.879 220.634 94.179 C 220.634 95.079 220.534 95.879 220.334 96.679 C 219.834 98.879 218.734 100.879 217.134 102.379 C 217.034 102.479 216.834 102.679 216.734 102.779 C 216.634 102.779 216.634 102.879 216.534 102.879 C 216.534 102.879 216.534 102.879 216.534 102.879 C 216.434 102.979 216.434 102.979 216.334 103.079 C 216.334 103.079 216.234 103.179 216.234 103.179 C 216.234 103.179 216.134 103.279 216.134 103.279 C 216.034 103.379 215.834 103.479 215.734 103.579 C 215.634 103.579 215.634 103.679 215.534 103.679 C 215.534 103.679 215.534 103.679 215.534 103.679 C 215.434 103.679 215.434 103.779 215.334 103.779 C 215.334 103.779 215.334 103.779 215.334 103.779 C 215.334 103.779 215.334 103.779 215.234 103.779 L 215.634 104.479 L 222.934 116.579 Z M 214.734 100.079 C 215.734 99.179 216.434 97.979 216.834 96.679 L 204.634 96.679 L 204.634 102.379 L 208.934 102.379 C 210.034 102.379 211.234 102.179 212.234 101.679 C 213.134 101.379 214.034 100.779 214.734 100.079 Z" style="fill: rgb(255, 255, 255);"/>
    <path class="st12" d="M 231.934 116.579 L 231.934 93.379 L 235.234 93.379 L 235.234 116.679 L 231.934 116.679 Z M 231.934 93.379 L 231.934 116.679 L 235.234 116.679 L 235.234 93.379 L 231.934 93.379 Z M 235.234 93.479 L 232.134 93.479 L 232.134 116.479 L 235.234 116.479 L 235.234 93.479 Z" style="fill: rgb(255, 255, 255);"/>
    <path class="st12" d="M 252.134 105.979 L 254.234 108.779 L 248.534 116.579 L 244.334 116.579 L 252.134 105.979 Z M 266.234 116.579 L 262.034 116.579 L 255.234 107.379 L 255.234 107.379 L 253.134 104.579 L 253.134 104.579 L 252.834 104.179 L 244.934 93.379 L 249.134 93.379 L 255.034 101.379 L 255.334 101.779 L 255.634 101.379 L 261.534 93.379 L 265.734 93.379 L 257.834 104.179 L 257.534 104.579 L 266.234 116.579 Z" style="fill: rgb(255, 255, 255);"/>
    <rect x="152.234" y="106.679" class="st12" width="11.1" height="3.3" style="fill: rgb(255, 255, 255);"/>
    <g transform="matrix(1, 0, 0, 1, 31.234074, 72.27935)" style="">
      <linearGradient id="SVGID_15_" gradientUnits="userSpaceOnUse" x1="243.435" y1="33.4893" x2="406.8392" y2="5.9148">
        <stop offset="0" style="stop-color:#7c14ec"/>
        <stop offset="1" style="stop-color:#df1ac5"/>
      </linearGradient>
      <path class="st15" d="M257.1,21.5L257.1,21.5l-12.8,0v23.2h3.4V33.9h9.7l0,0c3.2-0.3,5.7-2.9,5.7-6.2 C262.9,24.3,260.3,21.6,257.1,21.5z M256.7,30.5h-9.1v-5.7h8.9c0,0,0,0,0,0c0.1,0,0.1,0,0.2,0c1.6,0,2.8,1.3,2.8,2.8 S258.3,30.5,256.7,30.5z" style="fill: url(#SVGID_15_);"/>
      <linearGradient id="SVGID_16_" gradientUnits="userSpaceOnUse" x1="244.8706" y1="41.9968" x2="408.2748" y2="14.4224">
        <stop offset="0" style="stop-color:#7c14ec"/>
        <stop offset="1" style="stop-color:#df1ac5"/>
      </linearGradient>
      <polygon class="st16" points="276,33.9 290.9,33.9 290.9,30.5 276,30.5 276,26.5 272.6,26.5 272.6,44.7 293.2,44.7 293.2,41.3 &#10;&#9;&#9;276,41.3 &#9;" style="fill: url(#SVGID_16_);"/>
      <linearGradient id="SVGID_17_" gradientUnits="userSpaceOnUse" x1="242.8254" y1="29.8771" x2="406.2296" y2="2.3027">
        <stop offset="0" style="stop-color:#7c14ec"/>
        <stop offset="1" style="stop-color:#df1ac5"/>
      </linearGradient>
      <rect x="272.6" y="21.4" class="st17" width="20.6" height="3.4" style="fill: url(#SVGID_17_);"/>
      <linearGradient id="SVGID_18_" gradientUnits="userSpaceOnUse" x1="245.2947" y1="44.5099" x2="408.6989" y2="16.9354">
        <stop offset="0" style="stop-color:#7c14ec"/>
        <stop offset="1" style="stop-color:#df1ac5"/>
      </linearGradient>
      <path class="st18" d="M316.4,32C316.4,32,316.4,32,316.4,32C316.5,32,316.5,32,316.4,32c0.2-0.1,0.2-0.1,0.3-0.2c0,0,0,0,0,0 c0.1,0,0.1-0.1,0.2-0.1c0.1-0.1,0.3-0.2,0.4-0.3c0,0,0.1-0.1,0.1-0.1c0,0,0.1-0.1,0.1-0.1c0.1-0.1,0.1-0.1,0.2-0.2c0,0,0,0,0,0 c0.1,0,0.1-0.1,0.2-0.1c0.2-0.1,0.3-0.3,0.4-0.4c1.6-1.5,2.7-3.5,3.2-5.8c0.2-0.8,0.3-1.7,0.3-2.5c0-0.3,0-0.5,0-0.8h-19.3v23.3 h3.4V33.8h4.3c0.1,0,0.2,0,0.2,0c0,0,0.1,0,0.1,0c0.1,0,0.1,0,0.2,0c0,0,0,0,0,0c0.1,0,0.2,0,0.3,0c0,0,0,0,0,0c0.1,0,0.2,0,0.3,0 c0.1,0,0.2,0,0.2,0c0,0,0.1,0,0.1,0c0.1,0,0.2,0,0.2,0c0,0,0.1,0,0.1,0c0.1,0,0.1,0,0.2,0c0.2,0,0.4-0.1,0.6-0.1 c0.1,0,0.2,0,0.3-0.1c0,0,0,0,0.1,0c0.1,0,0.1,0,0.2,0c0,0,0,0,0,0l0.2,0.3l6.7,11h3.9l-7.3-12L316.4,32z M313.5,29.8 c-1,0.4-2.1,0.7-3.3,0.7h-4.3v-5.8h12.2c-0.4,1.3-1.1,2.4-2.1,3.4C315.2,28.8,314.4,29.4,313.5,29.8z" style="fill: url(#SVGID_18_);"/>
      <linearGradient id="SVGID_19_" gradientUnits="userSpaceOnUse" x1="245.9041" y1="48.1215" x2="409.3084" y2="20.547">
        <stop offset="0" style="stop-color:#7c14ec"/>
        <stop offset="1" style="stop-color:#df1ac5"/>
      </linearGradient>
      <path class="st19" d="M346.2,21.5L346.2,21.5l-12.8,0v23.2h3.4V33.9h9.7l0,0c3.2-0.3,5.7-2.9,5.7-6.2 C352.1,24.3,349.5,21.6,346.2,21.5z M345.9,30.5h-9.1v-5.7h8.9c0,0,0,0,0,0c0.1,0,0.1,0,0.2,0c1.6,0,2.8,1.3,2.8,2.8 S347.5,30.5,345.9,30.5z" style="fill: url(#SVGID_19_);"/>
    </g>
  </g>
</svg>