<?xml version="1.0" encoding="utf-8"?>
<!-- Generator: Adobe Illustrator 23.0.5, SVG Export Plug-In . SVG Version: 6.00 Build 0)  -->
<svg version="1.1" id="Шар_1" xmlns="http://www.w3.org/2000/svg" xmlns:xlink="http://www.w3.org/1999/xlink" x="0px" y="0px"
	 viewBox="0 0 354.4 65" style="enable-background:new 0 0 354.4 65;" xml:space="preserve">
<style type="text/css">
	.st0{display:none;}
	.st1{display:inline;}
	.st2{clip-path:url(#SVGID_2_);}
	.st3{clip-path:url(#SVGID_4_);}
	.st4{display:inline;fill:url(#SVGID_5_);}
	.st5{display:inline;fill:url(#SVGID_6_);}
	.st6{display:inline;fill:url(#SVGID_7_);}
	.st7{display:inline;fill:url(#SVGID_8_);}
	.st8{display:inline;fill:url(#SVGID_9_);}
	.st9{display:inline;fill:url(#SVGID_10_);}
	.st10{display:inline;fill:url(#SVGID_11_);}
	.st11{display:inline;fill:url(#SVGID_12_);}
	.st12{fill:#001625;}
	.st13{fill:url(#SVGID_13_);}
	.st14{fill:url(#SVGID_14_);}
	.st15{fill:url(#SVGID_15_);}
	.st16{fill:url(#SVGID_16_);}
	.st17{fill:url(#SVGID_17_);}
	.st18{fill:url(#SVGID_18_);}
	.st19{fill:url(#SVGID_19_);}
</style>
<g>
	<g class="st0">
		<g class="st1">
			<g>
				<defs>
					<rect id="SVGID_1_" x="-142.3" y="-297.9" width="509" height="514.1"/>
				</defs>
				<clipPath id="SVGID_2_">
					<use xlink:href="#SVGID_1_"  style="overflow:visible;"/>
				</clipPath>
				<g class="st2">
					
						<image style="overflow:visible;enable-background:new    ;" width="510" height="510" xlink:href="69BEF386.png"  transform="matrix(1 0 0 1 -144.2766 -293.9362)">
					</image>
				</g>
			</g>
			<g>
				<defs>
					<rect id="SVGID_3_" x="-142.3" y="-297.9" width="509" height="514.1"/>
				</defs>
				<clipPath id="SVGID_4_">
					<use xlink:href="#SVGID_3_"  style="overflow:visible;"/>
				</clipPath>
				<g class="st3">
					
						<image style="overflow:visible;enable-background:new    ;" width="1126" height="2502" xlink:href="69BEF387.png"  transform="matrix(1 0 0 1 -299.2766 -619.9362)">
					</image>
				</g>
			</g>
		</g>
	</g>
	<g>
		<g>
			<g class="st0">
				
					<linearGradient id="SVGID_5_" gradientUnits="userSpaceOnUse" x1="174.4382" y1="-42.7951" x2="288.8647" y2="-20.9383" gradientTransform="matrix(1 0 0 -1 0 -89.8723)">
					<stop  offset="0" style="stop-color:#7c14ec"/>
					<stop  offset="1" style="stop-color:#df1ac5"/>
				</linearGradient>
				<polygon class="st4" points="177.4,-60.4 174.1,-60.4 174.1,-37 192.1,-37 192.1,-40.3 177.4,-40.3 				"/>
				
					<linearGradient id="SVGID_6_" gradientUnits="userSpaceOnUse" x1="177.8495" y1="-49.0413" x2="292.276" y2="-27.1846" gradientTransform="matrix(1 0 0 -1 0 -89.8723)">
					<stop  offset="0" style="stop-color:#7c14ec"/>
					<stop  offset="1" style="stop-color:#df1ac5"/>
				</linearGradient>
				<path class="st5" d="M213.6-58.4l-1-1.9l0,0l0,0l0,0l0,0l-1,1.9l-1.2,2.1L199.7-37h4.4l0,0l3.6-6.6h9.6l3.6,6.6l0,0h4.4
					l-10.7-19.3L213.6-58.4z M209.5-46.9l3-5.4l3,5.4H209.5z"/>
				
					<linearGradient id="SVGID_7_" gradientUnits="userSpaceOnUse" x1="180.8055" y1="-52.9037" x2="295.2319" y2="-31.0469" gradientTransform="matrix(1 0 0 -1 0 -89.8723)">
					<stop  offset="0" style="stop-color:#7c14ec"/>
					<stop  offset="1" style="stop-color:#df1ac5"/>
				</linearGradient>
				<path class="st6" d="M252.9-48.6c-0.3-0.3-0.7-0.5-1-0.7c0.2-0.3,0.5-0.6,0.6-0.9c0,0,0,0,0-0.1c0.5-1,0.9-2.1,0.9-3.3
					s-0.3-2.3-0.8-3.2v-0.1c-1.1-2-3.3-3.3-5.8-3.3h-12.3v3.4h13c1.5,0.3,2.6,1.7,2.6,3.2c0,1.6-1.2,3-2.8,3.3h-9.5v-4.8h-3.3V-37
					h12.3c0.3,0,0.6,0,0.9-0.1c0.3,0,0.6,0.1,0.9,0.1c2.5,0,4.7-1.4,5.8-3.4c0.5-1,0.8-2.1,0.8-3.2c0-1.2-0.3-2.3-0.8-3.2
					C254-47.5,253.5-48.1,252.9-48.6z M249.2-40.4h-11.4v-6.5h11.3c1.5,0.3,2.7,1.6,2.7,3.2C251.8-42,250.7-40.7,249.2-40.4z"/>
				
					<linearGradient id="SVGID_8_" gradientUnits="userSpaceOnUse" x1="184.0754" y1="-58.41" x2="298.5019" y2="-36.5532" gradientTransform="matrix(1 0 0 -1 0 -89.8723)">
					<stop  offset="0" style="stop-color:#7c14ec"/>
					<stop  offset="1" style="stop-color:#df1ac5"/>
				</linearGradient>
				<path class="st7" d="M277.4-50.2h-6.7c-0.2,0-0.4,0-0.6,0c-0.1,0-0.2,0-0.3,0c-1.7-0.2-3-1.6-3-3.3c0-1.8,1.5-3.3,3.3-3.3h7.4
					c1.7,0.1,3.1,1.4,3.2,3.1h3.4c0-1.1-0.3-2.2-0.9-3.1l0,0c-1.1-2-3.2-3.3-5.6-3.3c-0.1,0-0.1,0-0.2,0c-0.1,0-0.1,0-0.2,0h-7.1
					c-2.5,0-4.6,1.3-5.8,3.3c-0.6,1-0.9,2.1-0.9,3.3s0.3,2.3,0.9,3.3c0.3,0.5,0.6,0.9,1,1.3c1.2,1.2,2.9,2,4.8,2h7.2
					c1.8,0,3.3,1.5,3.3,3.3s-1.5,3.3-3.3,3.3h-7.2c-1.8,0-3.2-1.4-3.3-3.1h-3.4c0,1.1,0.3,2.2,0.9,3.1c1.1,2,3.3,3.3,5.8,3.3h7.2
					c2.5,0,4.6-1.3,5.8-3.3c0.6-1,0.9-2.1,0.9-3.3s-0.3-2.3-0.9-3.3C282-48.9,279.9-50.2,277.4-50.2z"/>
			</g>
		</g>
	</g>
	<g>
		<g>
			<g class="st0">
				
					<linearGradient id="SVGID_9_" gradientUnits="userSpaceOnUse" x1="753.4382" y1="-45.7951" x2="867.8647" y2="-23.9383" gradientTransform="matrix(1 0 0 -1 0 -89.8723)">
					<stop  offset="0" style="stop-color:#7c14ec"/>
					<stop  offset="1" style="stop-color:#df1ac5"/>
				</linearGradient>
				<polygon class="st8" points="756.4,-57.4 753.1,-57.4 753.1,-34 771.1,-34 771.1,-37.3 756.4,-37.3 				"/>
				
					<linearGradient id="SVGID_10_" gradientUnits="userSpaceOnUse" x1="756.8495" y1="-52.0413" x2="871.276" y2="-30.1846" gradientTransform="matrix(1 0 0 -1 0 -89.8723)">
					<stop  offset="0" style="stop-color:#7c14ec"/>
					<stop  offset="1" style="stop-color:#df1ac5"/>
				</linearGradient>
				<path class="st9" d="M792.6-55.4l-1-1.9l0,0l0,0l0,0l0,0l-1,1.9l-1.2,2.1L778.7-34h4.4l0,0l3.6-6.6h9.6l3.6,6.6l0,0h4.4
					l-10.7-19.3L792.6-55.4z M788.5-43.9l3-5.4l3,5.4H788.5z"/>
				
					<linearGradient id="SVGID_11_" gradientUnits="userSpaceOnUse" x1="759.8055" y1="-55.9037" x2="874.2319" y2="-34.047" gradientTransform="matrix(1 0 0 -1 0 -89.8723)">
					<stop  offset="0" style="stop-color:#7c14ec"/>
					<stop  offset="1" style="stop-color:#df1ac5"/>
				</linearGradient>
				<path class="st10" d="M831.9-45.6c-0.3-0.3-0.7-0.5-1-0.7c0.2-0.3,0.5-0.6,0.6-0.9c0,0,0,0,0-0.1c0.5-1,0.9-2.1,0.9-3.3
					s-0.3-2.3-0.8-3.2v-0.1c-1.1-2-3.3-3.3-5.8-3.3h-12.3v3.4h13c1.5,0.3,2.6,1.7,2.6,3.2c0,1.6-1.2,3-2.8,3.3h-9.5v-4.8h-3.3V-34
					h12.3c0.3,0,0.6,0,0.9-0.1c0.3,0,0.6,0.1,0.9,0.1c2.5,0,4.7-1.4,5.8-3.4c0.5-1,0.8-2.1,0.8-3.2c0-1.2-0.3-2.3-0.8-3.2
					C833-44.5,832.5-45.1,831.9-45.6z M828.2-37.4h-11.4v-6.5h11.3c1.5,0.3,2.7,1.6,2.7,3.2C830.8-39,829.7-37.7,828.2-37.4z"/>
				
					<linearGradient id="SVGID_12_" gradientUnits="userSpaceOnUse" x1="763.0754" y1="-61.41" x2="877.5018" y2="-39.5532" gradientTransform="matrix(1 0 0 -1 0 -89.8723)">
					<stop  offset="0" style="stop-color:#7c14ec"/>
					<stop  offset="1" style="stop-color:#df1ac5"/>
				</linearGradient>
				<path class="st11" d="M856.4-47.2h-6.7c-0.2,0-0.4,0-0.6,0c-0.1,0-0.2,0-0.3,0c-1.7-0.2-3-1.6-3-3.3c0-1.8,1.5-3.3,3.3-3.3h7.4
					c1.7,0.1,3.1,1.4,3.2,3.1h3.4c0-1.1-0.3-2.2-0.9-3.1l0,0c-1.1-2-3.2-3.3-5.6-3.3c-0.1,0-0.1,0-0.2,0c-0.1,0-0.1,0-0.2,0h-7.1
					c-2.5,0-4.6,1.3-5.8,3.3c-0.6,1-0.9,2.1-0.9,3.3s0.3,2.3,0.9,3.3c0.3,0.5,0.6,0.9,1,1.3c1.2,1.2,2.9,2,4.8,2h7.2
					c1.8,0,3.3,1.5,3.3,3.3s-1.5,3.3-3.3,3.3h-7.2c-1.8,0-3.2-1.4-3.3-3.1h-3.4c0,1.1,0.3,2.2,0.9,3.1c1.1,2,3.3,3.3,5.8,3.3h7.2
					c2.5,0,4.6-1.3,5.8-3.3c0.6-1,0.9-2.1,0.9-3.3s-0.3-2.3-0.9-3.3C861-45.9,858.9-47.2,856.4-47.2z"/>
			</g>
		</g>
	</g>
</g>
<path class="st12" d="M105.3,21.2v23.1h-3.3V29.3l-4.6,4.6l-1.1,1.1L95,36.2l-7.1-7.1v0l-3.3-3.3V21L95,31.5L105.3,21.2z M84.6,24.4
	l3.3,4.3v15.7h-3.3V24.4z"/>
<path class="st12" d="M123.5,27l2.2,4l-7.4,13.3h-4.4L123.5,27z M139.7,44.3h-4.4L126.8,29l-2.2-4l2.2-4l0,0l2.2,4L139.7,44.3z"/>
<path class="st12" d="M139.7,44.3h-4.4L127.9,31l2.2-4L139.7,44.3z M124.6,25l2.2-4l0,0l2.2,4l-2.2,4l-8.5,15.3h-4.4L124.6,25z"/>
<path class="st12" d="M140.7,24.5v-3.3h20.7v3.3H140.7z M149.2,44.3V26.1h3.3v18.2H149.2z"/>
<path class="st12" d="M191.7,44.3h-3.9l-6.7-11l-0.2-0.3c0,0,0,0,0,0c-0.1,0-0.1,0-0.2,0c0,0,0,0-0.1,0c-0.1,0-0.2,0-0.3,0.1
	c-0.2,0-0.4,0.1-0.6,0.1c-0.1,0-0.1,0-0.2,0c0,0-0.1,0-0.1,0c-0.1,0-0.1,0-0.2,0c0,0-0.1,0-0.1,0c-0.1,0-0.2,0-0.2,0
	c-0.1,0-0.2,0-0.3,0c0,0,0,0,0,0c-0.1,0-0.2,0-0.3,0c0,0,0,0,0,0c-0.1,0-0.1,0-0.2,0c0,0-0.1,0-0.1,0c-0.1,0-0.2,0-0.2,0h-4.3v10.8
	h-3.3V21.1h19.2c0,0.3,0,0.5,0,0.8c0,0.9-0.1,1.7-0.3,2.5c-0.5,2.2-1.6,4.2-3.2,5.7c-0.1,0.1-0.3,0.3-0.4,0.4
	c-0.1,0-0.1,0.1-0.2,0.1c0,0,0,0,0,0c-0.1,0.1-0.1,0.1-0.2,0.2c0,0-0.1,0.1-0.1,0.1c0,0-0.1,0.1-0.1,0.1c-0.1,0.1-0.3,0.2-0.4,0.3
	c-0.1,0-0.1,0.1-0.2,0.1c0,0,0,0,0,0c-0.1,0-0.1,0.1-0.2,0.1c0,0,0,0,0,0c0,0,0,0-0.1,0l0.4,0.7L191.7,44.3z M183.5,27.8
	c1-0.9,1.7-2.1,2.1-3.4h-12.2v5.7h4.3c1.1,0,2.3-0.2,3.3-0.7C181.9,29.1,182.8,28.5,183.5,27.8z"/>
<path class="st12" d="M200.7,44.3V21.1h3.3v23.3H200.7z M200.7,21.1v23.3h3.3V21.1H200.7z M204,21.2h-3.1v23h3.1V21.2z"/>
<path class="st12" d="M220.9,33.7l2.1,2.8l-5.7,7.8h-4.2L220.9,33.7z M235,44.3h-4.2l-6.8-9.2l0,0l-2.1-2.8l0,0l-0.3-0.4l-7.9-10.8
	h4.2l5.9,8l0.3,0.4l0.3-0.4l5.9-8h4.2l-7.9,10.8l-0.3,0.4L235,44.3z"/>
<rect x="121" y="34.4" class="st12" width="11.1" height="3.3"/>
<g>
	<linearGradient id="SVGID_13_" gradientUnits="userSpaceOnUse" x1="7.0844" y1="55.274" x2="54.2656" y2="12.5073">
		<stop  offset="0" style="stop-color:#7c14ec"/>
		<stop  offset="1" style="stop-color:#df1ac5"/>
	</linearGradient>
	<path class="st13" d="M51.9,9.1c-5.2-4.2-11.7-6.6-18.4-6.7C29,2.3,24.6,3.2,20.4,5c-3.8,1.7-7.1,4-9.9,7h3.6
		c2.2-1.9,4.6-3.5,7.3-4.7C25,5.8,28.8,5,32.8,5c7.5,0,14.5,2.9,19.8,8.2c5.3,5.3,8.2,12.3,8.2,19.8c0,2.4-0.3,4.9-0.9,7.2
		c-0.6,2.2-1.4,4.3-2.5,6.2l-16.1,0V33.2l0.1-5.4l-3.5,5.5l-5,7.8l-4.3-6.6l-4.2-6.7v6.2l0,0l0,12.3h-7.5V22.2l-2.6,3.2v23.6h12.6
		V36.7l4.7,7.3c0.2,0.4,1.2,1.8,1.2,1.8s1.2-1.7,1.2-1.7l4.8-7.3v10.6l0,1.7c0,0,0,0,0,0l19.4,0c0.5,0,0.9-0.2,1.1-0.6l0.1-0.1
		c1.3-2.3,2.4-4.8,3-7.3c0.7-2.6,1-5.2,1-7.9C63.3,23.7,59.2,15.1,51.9,9.1z"/>
	<linearGradient id="SVGID_14_" gradientUnits="userSpaceOnUse" x1="7.8029" y1="56.0666" x2="54.9841" y2="13.3">
		<stop  offset="0" style="stop-color:#7c14ec"/>
		<stop  offset="1" style="stop-color:#df1ac5"/>
	</linearGradient>
	<path class="st14" d="M44.7,58.2c-3.7,1.8-7.8,2.7-11.9,2.7c-7.5,0-14.5-2.9-19.8-8.2c-5.3-5.3-8.2-12.3-8.2-19.8
		c0-2.7,0.4-5.5,1.2-8.1c0.7-2.4,1.8-4.7,3.1-6.8l16.4,0l5.2,8.6l2.1,3.5l2.1-3.5l5.2-8.6h8.8v24l2.6-3.1V15.5H39.6l-0.9,0h-0.1
		l-0.7,1.2l-5.2,8.5l-5.2-8.5l-0.6-1.2l-2.7,0l0,0l-16.5,0c-1.8,2.6-3.2,5.5-4.2,8.6c-0.9,2.8-1.3,5.8-1.3,8.8
		c0,8.1,3.2,15.8,8.9,21.6c5.8,5.8,13.4,8.9,21.6,8.9c4.6,0,8.9-1,13-2.9c4-1.9,7.6-4.7,10.4-8.1h-3.4
		C50.5,54.8,47.7,56.8,44.7,58.2z"/>
</g>
<g>
	<linearGradient id="SVGID_15_" gradientUnits="userSpaceOnUse" x1="243.435" y1="33.4893" x2="406.8392" y2="5.9148">
		<stop  offset="0" style="stop-color:#7c14ec"/>
		<stop  offset="1" style="stop-color:#df1ac5"/>
	</linearGradient>
	<path class="st15" d="M257.1,21.5L257.1,21.5l-12.8,0v23.2h3.4V33.9h9.7l0,0c3.2-0.3,5.7-2.9,5.7-6.2
		C262.9,24.3,260.3,21.6,257.1,21.5z M256.7,30.5h-9.1v-5.7h8.9c0,0,0,0,0,0c0.1,0,0.1,0,0.2,0c1.6,0,2.8,1.3,2.8,2.8
		S258.3,30.5,256.7,30.5z"/>
	<linearGradient id="SVGID_16_" gradientUnits="userSpaceOnUse" x1="244.8706" y1="41.9968" x2="408.2748" y2="14.4224">
		<stop  offset="0" style="stop-color:#7c14ec"/>
		<stop  offset="1" style="stop-color:#df1ac5"/>
	</linearGradient>
	<polygon class="st16" points="276,33.9 290.9,33.9 290.9,30.5 276,30.5 276,26.5 272.6,26.5 272.6,44.7 293.2,44.7 293.2,41.3 
		276,41.3 	"/>
	<linearGradient id="SVGID_17_" gradientUnits="userSpaceOnUse" x1="242.8254" y1="29.8771" x2="406.2296" y2="2.3027">
		<stop  offset="0" style="stop-color:#7c14ec"/>
		<stop  offset="1" style="stop-color:#df1ac5"/>
	</linearGradient>
	<rect x="272.6" y="21.4" class="st17" width="20.6" height="3.4"/>
	<linearGradient id="SVGID_18_" gradientUnits="userSpaceOnUse" x1="245.2947" y1="44.5099" x2="408.6989" y2="16.9354">
		<stop  offset="0" style="stop-color:#7c14ec"/>
		<stop  offset="1" style="stop-color:#df1ac5"/>
	</linearGradient>
	<path class="st18" d="M316.4,32C316.4,32,316.4,32,316.4,32C316.5,32,316.5,32,316.4,32c0.2-0.1,0.2-0.1,0.3-0.2c0,0,0,0,0,0
		c0.1,0,0.1-0.1,0.2-0.1c0.1-0.1,0.3-0.2,0.4-0.3c0,0,0.1-0.1,0.1-0.1c0,0,0.1-0.1,0.1-0.1c0.1-0.1,0.1-0.1,0.2-0.2c0,0,0,0,0,0
		c0.1,0,0.1-0.1,0.2-0.1c0.2-0.1,0.3-0.3,0.4-0.4c1.6-1.5,2.7-3.5,3.2-5.8c0.2-0.8,0.3-1.7,0.3-2.5c0-0.3,0-0.5,0-0.8h-19.3v23.3
		h3.4V33.8h4.3c0.1,0,0.2,0,0.2,0c0,0,0.1,0,0.1,0c0.1,0,0.1,0,0.2,0c0,0,0,0,0,0c0.1,0,0.2,0,0.3,0c0,0,0,0,0,0c0.1,0,0.2,0,0.3,0
		c0.1,0,0.2,0,0.2,0c0,0,0.1,0,0.1,0c0.1,0,0.2,0,0.2,0c0,0,0.1,0,0.1,0c0.1,0,0.1,0,0.2,0c0.2,0,0.4-0.1,0.6-0.1
		c0.1,0,0.2,0,0.3-0.1c0,0,0,0,0.1,0c0.1,0,0.1,0,0.2,0c0,0,0,0,0,0l0.2,0.3l6.7,11h3.9l-7.3-12L316.4,32z M313.5,29.8
		c-1,0.4-2.1,0.7-3.3,0.7h-4.3v-5.8h12.2c-0.4,1.3-1.1,2.4-2.1,3.4C315.2,28.8,314.4,29.4,313.5,29.8z"/>
	<linearGradient id="SVGID_19_" gradientUnits="userSpaceOnUse" x1="245.9041" y1="48.1215" x2="409.3084" y2="20.547">
		<stop  offset="0" style="stop-color:#7c14ec"/>
		<stop  offset="1" style="stop-color:#df1ac5"/>
	</linearGradient>
	<path class="st19" d="M346.2,21.5L346.2,21.5l-12.8,0v23.2h3.4V33.9h9.7l0,0c3.2-0.3,5.7-2.9,5.7-6.2
		C352.1,24.3,349.5,21.6,346.2,21.5z M345.9,30.5h-9.1v-5.7h8.9c0,0,0,0,0,0c0.1,0,0.1,0,0.2,0c1.6,0,2.8,1.3,2.8,2.8
		S347.5,30.5,345.9,30.5z"/>
</g>
</svg>
