<?xml version="1.0" encoding="utf-8"?>
<!-- Generator: Adobe Illustrator 23.0.5, SVG Export Plug-In . SVG Version: 6.00 Build 0)  -->
<svg version="1.1" id="Шар_1" xmlns="http://www.w3.org/2000/svg" xmlns:xlink="http://www.w3.org/1999/xlink" x="0px" y="0px"
	 viewBox="0 0 357.2 62.7" style="enable-background:new 0 0 357.2 62.7;" xml:space="preserve">
<style type="text/css">
	.st0{display:none;}
	.st1{display:inline;}
	.st2{clip-path:url(#SVGID_2_);}
	.st3{clip-path:url(#SVGID_4_);}
	.st4{fill:#FFFFFF;}
	.st5{display:inline;fill:url(#SVGID_5_);}
	.st6{display:inline;fill:url(#SVGID_6_);}
	.st7{display:inline;fill:url(#SVGID_7_);}
	.st8{display:inline;fill:url(#SVGID_8_);}
	.st9{fill:url(#SVGID_9_);}
	.st10{fill:url(#SVGID_10_);}
	.st11{fill:url(#SVGID_11_);}
	.st12{fill:url(#SVGID_12_);}
	.st13{fill:url(#SVGID_13_);}
	.st14{fill:url(#SVGID_14_);}
	.st15{display:inline;fill:url(#SVGID_15_);}
	.st16{display:inline;fill:url(#SVGID_16_);}
	.st17{display:inline;fill:url(#SVGID_17_);}
	.st18{display:inline;fill:url(#SVGID_18_);}
	.st19{display:inline;fill:url(#SVGID_19_);}
	.st20{display:inline;fill:url(#SVGID_20_);}
	.st21{display:inline;fill:url(#SVGID_21_);}
	.st22{display:inline;fill:url(#SVGID_22_);}
	.st23{display:inline;fill:url(#SVGID_23_);}
	.st24{display:inline;fill:url(#SVGID_24_);}
	.st25{display:inline;fill:url(#SVGID_25_);}
	.st26{display:inline;fill:url(#SVGID_26_);}
	.st27{fill:none;}
	.st28{display:inline;fill:url(#SVGID_27_);}
	.st29{display:inline;fill:url(#SVGID_28_);}
	.st30{display:inline;fill:url(#SVGID_29_);}
	.st31{display:inline;fill:url(#SVGID_30_);}
	.st32{display:inline;fill:url(#SVGID_31_);}
	.st33{display:inline;fill:url(#SVGID_32_);}
	.st34{display:inline;fill:url(#SVGID_33_);}
	.st35{display:inline;fill:url(#SVGID_34_);}
	.st36{display:inline;fill:url(#SVGID_35_);}
	.st37{display:inline;fill:url(#SVGID_36_);}
</style>
<g>
	<g class="st0">
		<g class="st1">
			<g>
				<defs>
					<rect id="SVGID_1_" x="-73.2" y="-218.3" width="509" height="514.1"/>
				</defs>
				<clipPath id="SVGID_2_">
					<use xlink:href="#SVGID_1_"  style="overflow:visible;"/>
				</clipPath>
				<g class="st2">
					
						<image style="overflow:visible;enable-background:new    ;" width="510" height="510" xlink:href="69BEF386.png"  transform="matrix(1 0 0 1 -75.1702 -214.2766)">
					</image>
				</g>
			</g>
			<g>
				<defs>
					<rect id="SVGID_3_" x="-73.2" y="-218.3" width="509" height="514.1"/>
				</defs>
				<clipPath id="SVGID_4_">
					<use xlink:href="#SVGID_3_"  style="overflow:visible;"/>
				</clipPath>
				<g class="st3">
					
						<image style="overflow:visible;enable-background:new    ;" width="1126" height="2502" xlink:href="69BEF387.png"  transform="matrix(1 0 0 1 -230.1702 -540.2766)">
					</image>
				</g>
			</g>
		</g>
	</g>
	<g>
		<g>
			<path class="st4" d="M104.4,19.5v23.1h-3.3V27.5l-4.6,4.6l-1.1,1.1l-1.3,1.3L87,27.4l0,0l-3.3-3.3v-4.7l10.4,10.4L104.4,19.5z
				 M83.7,22.7L87,27v15.7h-3.3V22.7z"/>
			<path class="st4" d="M122.7,25.3l2.2,4l-7.4,13.3h-4.4L122.7,25.3z M138.9,42.6h-4.4L126,27.3l-2.2-4l2.2-4l0,0l2.2,4L138.9,42.6
				z"/>
			<path class="st4" d="M138.9,42.6h-4.4l-7.4-13.3l2.2-4L138.9,42.6z M123.8,23.3l2.2-4l0,0l2.2,4l-2.2,4l-8.5,15.3h-4.4
				L123.8,23.3z"/>
			<path class="st4" d="M139.9,22.8v-3.3h20.7v3.3H139.9z M148.4,42.6V24.4h3.3v18.2H148.4z"/>
			<path class="st4" d="M190.8,42.6h-3.9l-6.7-11l-0.2-0.3l0,0c-0.1,0-0.1,0-0.2,0c0,0,0,0-0.1,0s-0.2,0-0.3,0.1
				c-0.2,0-0.4,0.1-0.6,0.1c-0.1,0-0.1,0-0.2,0h-0.1c-0.1,0-0.1,0-0.2,0h-0.1c-0.1,0-0.2,0-0.2,0c-0.1,0-0.2,0-0.3,0l0,0
				c-0.1,0-0.2,0-0.3,0l0,0c-0.1,0-0.1,0-0.2,0h-0.1c-0.1,0-0.2,0-0.2,0h-4.3v10.8h-3.3V19h19.2c0,0.3,0,0.5,0,0.8
				c0,0.9-0.1,1.7-0.3,2.5c-0.5,2.2-1.6,4.2-3.2,5.7c-0.1,0.1-0.3,0.3-0.4,0.4c-0.1,0-0.1,0.1-0.2,0.1l0,0c-0.1,0.1-0.1,0.1-0.2,0.2
				l-0.1,0.1l-0.1,0.1c-0.1,0.1-0.3,0.2-0.4,0.3c-0.1,0-0.1,0.1-0.2,0.1l0,0c-0.1,0-0.1,0.1-0.2,0.1l0,0c0,0,0,0-0.1,0l0.4,0.7
				L190.8,42.6z M182.7,26.1c1-0.9,1.7-2.1,2.1-3.4h-12.2v5.7h4.3c1.1,0,2.3-0.2,3.3-0.7C181.1,27.4,182,26.8,182.7,26.1z"/>
			<path class="st4" d="M199.9,42.6V19.3h3.3v23.3H199.9z M199.9,19.4v23.3h3.3V19.4H199.9z M203.1,19.5H200v23h3.1V19.5z"/>
			<path class="st4" d="M220.1,32l2.1,2.8l-5.7,7.8h-4.2L220.1,32z M234.1,42.6h-4.2l-6.8-9.2l0,0l-2.1-2.8l0,0l-0.3-0.4l-7.9-10.8
				h4.2l5.9,8l0.3,0.4l0.3-0.4l5.9-8h4.2l-7.9,10.8l-0.3,0.4L234.1,42.6z"/>
			<g class="st0">
				
					<linearGradient id="SVGID_5_" gradientUnits="userSpaceOnUse" x1="243.5446" y1="36.8644" x2="357.9711" y2="58.7212" gradientTransform="matrix(1 0 0 -1 0 69.4468)">
					<stop  offset="0" style="stop-color:#7c14ec"/>
					<stop  offset="1" style="stop-color:#df1ac5"/>
				</linearGradient>
				<polygon class="st5" points="246.5,19.2 243.2,19.2 243.2,42.6 261.2,42.6 261.2,39.3 246.5,39.3 				"/>
				
					<linearGradient id="SVGID_6_" gradientUnits="userSpaceOnUse" x1="246.9559" y1="30.6183" x2="361.3824" y2="52.475" gradientTransform="matrix(1 0 0 -1 0 69.4468)">
					<stop  offset="0" style="stop-color:#7c14ec"/>
					<stop  offset="1" style="stop-color:#df1ac5"/>
				</linearGradient>
				<path class="st6" d="M282.7,21.2l-1-1.9l0,0l0,0l0,0l0,0l-1,1.9l-1.2,2.1l-10.7,19.3h4.4l0,0l3.6-6.6h9.6l3.6,6.6l0,0h4.4
					l-10.7-19.3L282.7,21.2z M278.6,32.7l3-5.4l3,5.4H278.6z"/>
				
					<linearGradient id="SVGID_7_" gradientUnits="userSpaceOnUse" x1="249.9119" y1="26.7558" x2="364.3383" y2="48.6126" gradientTransform="matrix(1 0 0 -1 0 69.4468)">
					<stop  offset="0" style="stop-color:#7c14ec"/>
					<stop  offset="1" style="stop-color:#df1ac5"/>
				</linearGradient>
				<path class="st7" d="M322,31c-0.3-0.3-0.7-0.5-1-0.7c0.2-0.3,0.5-0.6,0.6-0.9c0,0,0,0,0-0.1c0.5-1,0.9-2.1,0.9-3.3
					s-0.3-2.3-0.8-3.2v-0.1c-1.1-2-3.3-3.3-5.8-3.3h-12.3v3.4h13c1.5,0.3,2.6,1.7,2.6,3.2c0,1.6-1.2,3-2.8,3.3h-9.5v-4.8h-3.3v18.1
					h12.3c0.3,0,0.6,0,0.9-0.1c0.3,0,0.6,0.1,0.9,0.1c2.5,0,4.7-1.4,5.8-3.4c0.5-1,0.8-2.1,0.8-3.2c0-1.2-0.3-2.3-0.8-3.2
					C323.1,32.1,322.6,31.5,322,31z M318.3,39.2h-11.4v-6.5h11.3c1.5,0.3,2.7,1.6,2.7,3.2C320.9,37.6,319.8,38.9,318.3,39.2z"/>
				
					<linearGradient id="SVGID_8_" gradientUnits="userSpaceOnUse" x1="253.1818" y1="21.2496" x2="367.6083" y2="43.1064" gradientTransform="matrix(1 0 0 -1 0 69.4468)">
					<stop  offset="0" style="stop-color:#7c14ec"/>
					<stop  offset="1" style="stop-color:#df1ac5"/>
				</linearGradient>
				<path class="st8" d="M346.5,29.4h-6.7c-0.2,0-0.4,0-0.6,0c-0.1,0-0.2,0-0.3,0c-1.7-0.2-3-1.6-3-3.3c0-1.8,1.5-3.3,3.3-3.3h7.4
					c1.7,0.1,3.1,1.4,3.2,3.1h3.4c0-1.1-0.3-2.2-0.9-3.1l0,0c-1.1-2-3.2-3.3-5.6-3.3c-0.1,0-0.1,0-0.2,0c-0.1,0-0.1,0-0.2,0h-7.1
					c-2.5,0-4.6,1.3-5.8,3.3c-0.6,1-0.9,2.1-0.9,3.3s0.3,2.3,0.9,3.3c0.3,0.5,0.6,0.9,1,1.3c1.2,1.2,2.9,2,4.8,2h7.2
					c1.8,0,3.3,1.5,3.3,3.3s-1.5,3.3-3.3,3.3h-7.2c-1.8,0-3.2-1.4-3.3-3.1h-3.4c0,1.1,0.3,2.2,0.9,3.1c1.1,2,3.3,3.3,5.8,3.3h7.2
					c2.5,0,4.6-1.3,5.8-3.3c0.6-1,0.9-2.1,0.9-3.3s-0.3-2.3-0.9-3.3C351.1,30.7,349,29.4,346.5,29.4z"/>
			</g>
		</g>
		<rect x="120.1" y="32.7" class="st4" width="11.1" height="3.3"/>
		<g>
			
				<linearGradient id="SVGID_9_" gradientUnits="userSpaceOnUse" x1="6.3361" y1="15.7972" x2="53.5173" y2="58.5639" gradientTransform="matrix(1 0 0 -1 0 69.4468)">
				<stop  offset="0" style="stop-color:#7c14ec"/>
				<stop  offset="1" style="stop-color:#df1ac5"/>
			</linearGradient>
			<path class="st9" d="M51.1,7.4c-5.2-4.2-11.7-6.6-18.4-6.7c-4.6-0.1-9,0.8-13.1,2.6c-3.8,1.7-7.1,4-9.9,7h3.6
				c2.2-1.9,4.6-3.5,7.3-4.7C24.2,4,28,3.2,31.9,3.2c7.5,0,14.5,2.9,19.8,8.2s8.2,12.3,8.2,19.8c0,2.4-0.3,4.9-0.9,7.2
				c-0.6,2.2-1.4,4.3-2.5,6.2H40.4V31.4l0.1-5.4L37,31.5l-5,7.8l-4.3-6.6L23.5,26v6.2l0,0v12.3H16V20.3l-2.6,3.2v23.6H26V34.9
				l4.7,7.3c0.2,0.4,1.2,1.8,1.2,1.8l1.2-1.7l4.8-7.3v10.6v1.7l0,0h19.4c0.5,0,0.9-0.2,1.1-0.6l0.1-0.1c1.3-2.3,2.4-4.8,3-7.3
				c0.7-2.6,1-5.2,1-7.9C62.5,22,58.4,13.4,51.1,7.4z"/>
			
				<linearGradient id="SVGID_10_" gradientUnits="userSpaceOnUse" x1="6.9376" y1="15.1336" x2="54.1189" y2="57.9002" gradientTransform="matrix(1 0 0 -1 0 69.4468)">
				<stop  offset="0" style="stop-color:#7c14ec"/>
				<stop  offset="1" style="stop-color:#df1ac5"/>
			</linearGradient>
			<path class="st10" d="M43.9,56.5c-3.7,1.8-7.8,2.7-11.9,2.7c-7.5,0-14.5-2.9-19.8-8.2C6.9,45.7,4,38.7,4,31.2
				c0-2.7,0.4-5.5,1.2-8.1c0.7-2.4,1.8-4.7,3.1-6.8h16.4l5.2,8.6l2.1,3.5l2.1-3.5l5.2-8.6h8.8v24l2.6-3.1V13.7H38.8h-0.9h-0.1
				l-0.7,1.2l-5.2,8.5l-5.2-8.5l-0.6-1.2h-2.7l0,0H6.9c-1.8,2.6-3.2,5.5-4.2,8.6c-0.9,2.8-1.3,5.8-1.3,8.8c0,8.1,3.2,15.8,8.9,21.6
				c5.8,5.8,13.4,8.9,21.6,8.9c4.6,0,8.9-1,13-2.9c4-1.9,7.6-4.7,10.4-8.1h-3.4C49.6,53.1,46.9,55.1,43.9,56.5z"/>
		</g>
	</g>
	<g>
		
			<linearGradient id="SVGID_11_" gradientUnits="userSpaceOnUse" x1="241.8899" y1="37.2072" x2="371.592" y2="52.0157" gradientTransform="matrix(1 0 0 -1 0 69.4468)">
			<stop  offset="0" style="stop-color:#7c14ec"/>
			<stop  offset="1" style="stop-color:#df1ac5"/>
		</linearGradient>
		<path class="st11" d="M249.3,22.7h7.4c1.7,0.1,3.1,1.4,3.2,3.1h3.4c0-1.1-0.3-2.2-0.9-3.1l0,0c-1.1-2-3.2-3.3-5.6-3.4
			c-0.1,0-0.1,0-0.2,0s-0.1,0-0.2,0h-7.1c-2.5,0-4.6,1.4-5.8,3.4c-0.6,1-0.9,2.1-0.9,3.3s0.3,2.3,0.9,3.3c0.3,0.5,0.6,0.9,1,1.3
			c1.2,1.2,2.9,2,4.8,2h7.3c1.8,0,3.3,1.5,3.3,3.3s-1.5,3.3-3.3,3.3h-7.2c-1.8,0-3.2-1.4-3.3-3.1h-3.4c0,1.1,0.3,2.2,0.9,3.1
			c1.1,2,3.3,3.4,5.8,3.4h7.2c2.5,0,4.6-1.4,5.8-3.4c0.6-1,0.9-2.1,0.9-3.3s-0.3-2.3-0.9-3.3c-1.1-2-3.3-3.4-5.8-3.4h-6.7
			c-0.2,0-0.4,0-0.6,0c-0.1,0-0.2,0-0.3,0c-1.7-0.2-3-1.6-3-3.3C246,24.2,247.5,22.7,249.3,22.7z"/>
		
			<linearGradient id="SVGID_12_" gradientUnits="userSpaceOnUse" x1="242.2709" y1="33.8696" x2="371.9731" y2="48.6781" gradientTransform="matrix(1 0 0 -1 0 69.4468)">
			<stop  offset="0" style="stop-color:#7c14ec"/>
			<stop  offset="1" style="stop-color:#df1ac5"/>
		</linearGradient>
		<polygon class="st12" points="293.1,34.4 288.3,23.7 286.5,19.6 286.4,19.6 284.6,23.7 279.8,34.4 273.1,19.6 269.4,19.6 
			277.9,38.5 279.8,42.6 281.6,38.5 286.4,27.8 291.3,38.5 293.1,42.6 295,38.5 303.5,19.6 299.8,19.6 		"/>
		
			<linearGradient id="SVGID_13_" gradientUnits="userSpaceOnUse" x1="243.0041" y1="27.4484" x2="372.7063" y2="42.2569" gradientTransform="matrix(1 0 0 -1 0 69.4468)">
			<stop  offset="0" style="stop-color:#7c14ec"/>
			<stop  offset="1" style="stop-color:#df1ac5"/>
		</linearGradient>
		<path class="st13" d="M356.1,25.6c0-3.3-2.6-6-5.9-6.2l0,0h-12.8v23.2h3.4V31.8h9.7l0,0C353.6,31.5,356.1,28.8,356.1,25.6z
			 M350,28.4h-9.1v-5.7h8.9l0,0c0.1,0,0.1,0,0.2,0c1.6,0,2.8,1.3,2.8,2.8S351.5,28.4,350,28.4z"/>
		
			<linearGradient id="SVGID_14_" gradientUnits="userSpaceOnUse" x1="241.7919" y1="29.3067" x2="371.4941" y2="44.1152" gradientTransform="matrix(1 0 0 -1 0 69.4468)">
			<stop  offset="0" style="stop-color:#7c14ec"/>
			<stop  offset="1" style="stop-color:#df1ac5"/>
		</linearGradient>
		<path class="st14" d="M316.7,21.2l-1-1.9l0,0l0,0l0,0l0,0l-1,1.9l-1.2,2.1l-10.7,19.3h4.4l0,0l3.6-6.6h9.6l3.6,6.6l0,0h4.4
			l-10.7-19.3L316.7,21.2z M312.6,32.7l3-5.4l3,5.4H312.6z"/>
	</g>
	<g>
		<g>
			<g class="st0">
				
					<linearGradient id="SVGID_15_" gradientUnits="userSpaceOnUse" x1="822.5446" y1="33.8644" x2="936.9711" y2="55.7212" gradientTransform="matrix(1 0 0 -1 0 69.4468)">
					<stop  offset="0" style="stop-color:#7c14ec"/>
					<stop  offset="1" style="stop-color:#df1ac5"/>
				</linearGradient>
				<polygon class="st15" points="825.5,22.2 822.2,22.2 822.2,45.6 840.2,45.6 840.2,42.3 825.5,42.3 				"/>
				
					<linearGradient id="SVGID_16_" gradientUnits="userSpaceOnUse" x1="825.9559" y1="27.6183" x2="940.3824" y2="49.475" gradientTransform="matrix(1 0 0 -1 0 69.4468)">
					<stop  offset="0" style="stop-color:#7c14ec"/>
					<stop  offset="1" style="stop-color:#df1ac5"/>
				</linearGradient>
				<path class="st16" d="M861.7,24.2l-1-1.9l0,0l0,0l0,0l0,0l-1,1.9l-1.2,2.1l-10.7,19.3h4.4l0,0l3.6-6.6h9.6l3.6,6.6l0,0h4.4
					l-10.7-19.3L861.7,24.2z M857.6,35.7l3-5.4l3,5.4H857.6z"/>
				
					<linearGradient id="SVGID_17_" gradientUnits="userSpaceOnUse" x1="828.9119" y1="23.7558" x2="943.3383" y2="45.6126" gradientTransform="matrix(1 0 0 -1 0 69.4468)">
					<stop  offset="0" style="stop-color:#7c14ec"/>
					<stop  offset="1" style="stop-color:#df1ac5"/>
				</linearGradient>
				<path class="st17" d="M901,34c-0.3-0.3-0.7-0.5-1-0.7c0.2-0.3,0.5-0.6,0.6-0.9c0,0,0,0,0-0.1c0.5-1,0.9-2.1,0.9-3.3
					s-0.3-2.3-0.8-3.2v-0.1c-1.1-2-3.3-3.3-5.8-3.3h-12.3v3.4h13c1.5,0.3,2.6,1.7,2.6,3.2c0,1.6-1.2,3-2.8,3.3h-9.5v-4.8h-3.3v18.1
					h12.3c0.3,0,0.6,0,0.9-0.1c0.3,0,0.6,0.1,0.9,0.1c2.5,0,4.7-1.4,5.8-3.4c0.5-1,0.8-2.1,0.8-3.2c0-1.2-0.3-2.3-0.8-3.2
					C902.1,35.1,901.6,34.5,901,34z M897.3,42.2h-11.4v-6.5h11.3c1.5,0.3,2.7,1.6,2.7,3.2C899.9,40.6,898.8,41.9,897.3,42.2z"/>
				
					<linearGradient id="SVGID_18_" gradientUnits="userSpaceOnUse" x1="832.1818" y1="18.2496" x2="946.6082" y2="40.1064" gradientTransform="matrix(1 0 0 -1 0 69.4468)">
					<stop  offset="0" style="stop-color:#7c14ec"/>
					<stop  offset="1" style="stop-color:#df1ac5"/>
				</linearGradient>
				<path class="st18" d="M925.5,32.4h-6.7c-0.2,0-0.4,0-0.6,0c-0.1,0-0.2,0-0.3,0c-1.7-0.2-3-1.6-3-3.3c0-1.8,1.5-3.3,3.3-3.3h7.4
					c1.7,0.1,3.1,1.4,3.2,3.1h3.4c0-1.1-0.3-2.2-0.9-3.1l0,0c-1.1-2-3.2-3.3-5.6-3.3c-0.1,0-0.1,0-0.2,0c-0.1,0-0.1,0-0.2,0h-7.1
					c-2.5,0-4.6,1.3-5.8,3.3c-0.6,1-0.9,2.1-0.9,3.3s0.3,2.3,0.9,3.3c0.3,0.5,0.6,0.9,1,1.3c1.2,1.2,2.9,2,4.8,2h7.2
					c1.8,0,3.3,1.5,3.3,3.3s-1.5,3.3-3.3,3.3h-7.2c-1.8,0-3.2-1.4-3.3-3.1h-3.4c0,1.1,0.3,2.2,0.9,3.1c1.1,2,3.3,3.3,5.8,3.3h7.2
					c2.5,0,4.6-1.3,5.8-3.3c0.6-1,0.9-2.1,0.9-3.3s-0.3-2.3-0.9-3.3C930.1,33.7,928,32.4,925.5,32.4z"/>
			</g>
		</g>
	</g>
</g>
<g id="Шар_4">
	<g>
		<g>
			<g class="st0">
				
					<linearGradient id="SVGID_19_" gradientUnits="userSpaceOnUse" x1="811.5446" y1="35.8644" x2="925.9711" y2="57.7212" gradientTransform="matrix(1 0 0 -1 0 69.4468)">
					<stop  offset="0" style="stop-color:#7c14ec"/>
					<stop  offset="1" style="stop-color:#df1ac5"/>
				</linearGradient>
				<polygon class="st19" points="814.5,20.2 811.2,20.2 811.2,43.6 829.2,43.6 829.2,40.3 814.5,40.3 				"/>
				
					<linearGradient id="SVGID_20_" gradientUnits="userSpaceOnUse" x1="814.9559" y1="29.6183" x2="929.3824" y2="51.475" gradientTransform="matrix(1 0 0 -1 0 69.4468)">
					<stop  offset="0" style="stop-color:#7c14ec"/>
					<stop  offset="1" style="stop-color:#df1ac5"/>
				</linearGradient>
				<path class="st20" d="M850.7,22.2l-1-1.9l0,0l0,0l0,0l0,0l-1,1.9l-1.2,2.1l-10.7,19.3h4.4l0,0l3.6-6.6h9.6l3.6,6.6l0,0h4.4
					l-10.7-19.3L850.7,22.2z M846.6,33.7l3-5.4l3,5.4H846.6z"/>
				
					<linearGradient id="SVGID_21_" gradientUnits="userSpaceOnUse" x1="817.9119" y1="25.7558" x2="932.3383" y2="47.6126" gradientTransform="matrix(1 0 0 -1 0 69.4468)">
					<stop  offset="0" style="stop-color:#7c14ec"/>
					<stop  offset="1" style="stop-color:#df1ac5"/>
				</linearGradient>
				<path class="st21" d="M890,32c-0.3-0.3-0.7-0.5-1-0.7c0.2-0.3,0.5-0.6,0.6-0.9c0,0,0,0,0-0.1c0.5-1,0.9-2.1,0.9-3.3
					s-0.3-2.3-0.8-3.2v-0.1c-1.1-2-3.3-3.3-5.8-3.3h-12.3v3.4h13c1.5,0.3,2.6,1.7,2.6,3.2c0,1.6-1.2,3-2.8,3.3h-9.5v-4.8h-3.3v18.1
					h12.3c0.3,0,0.6,0,0.9-0.1c0.3,0,0.6,0.1,0.9,0.1c2.5,0,4.7-1.4,5.8-3.4c0.5-1,0.8-2.1,0.8-3.2c0-1.2-0.3-2.3-0.8-3.2
					C891.1,33.1,890.6,32.5,890,32z M886.3,40.2h-11.4v-6.5h11.3c1.5,0.3,2.7,1.6,2.7,3.2C888.9,38.6,887.8,39.9,886.3,40.2z"/>
				
					<linearGradient id="SVGID_22_" gradientUnits="userSpaceOnUse" x1="821.1818" y1="20.2496" x2="935.6082" y2="42.1064" gradientTransform="matrix(1 0 0 -1 0 69.4468)">
					<stop  offset="0" style="stop-color:#7c14ec"/>
					<stop  offset="1" style="stop-color:#df1ac5"/>
				</linearGradient>
				<path class="st22" d="M914.5,30.4h-6.7c-0.2,0-0.4,0-0.6,0c-0.1,0-0.2,0-0.3,0c-1.7-0.2-3-1.6-3-3.3c0-1.8,1.5-3.3,3.3-3.3h7.4
					c1.7,0.1,3.1,1.4,3.2,3.1h3.4c0-1.1-0.3-2.2-0.9-3.1l0,0c-1.1-2-3.2-3.3-5.6-3.3c-0.1,0-0.1,0-0.2,0c-0.1,0-0.1,0-0.2,0h-7.1
					c-2.5,0-4.6,1.3-5.8,3.3c-0.6,1-0.9,2.1-0.9,3.3s0.3,2.3,0.9,3.3c0.3,0.5,0.6,0.9,1,1.3c1.2,1.2,2.9,2,4.8,2h7.2
					c1.8,0,3.3,1.5,3.3,3.3s-1.5,3.3-3.3,3.3h-7.2c-1.8,0-3.2-1.4-3.3-3.1h-3.4c0,1.1,0.3,2.2,0.9,3.1c1.1,2,3.3,3.3,5.8,3.3h7.2
					c2.5,0,4.6-1.3,5.8-3.3c0.6-1,0.9-2.1,0.9-3.3s-0.3-2.3-0.9-3.3C919.1,31.7,917,30.4,914.5,30.4z"/>
			</g>
		</g>
	</g>
	<g class="st0">
		
			<linearGradient id="SVGID_23_" gradientUnits="userSpaceOnUse" x1="821.89" y1="36.2072" x2="951.592" y2="51.0157" gradientTransform="matrix(1 0 0 -1 0 69.4468)">
			<stop  offset="0" style="stop-color:#7c14ec"/>
			<stop  offset="1" style="stop-color:#df1ac5"/>
		</linearGradient>
		<path class="st23" d="M829.3,23.7h7.4c1.7,0.1,3.1,1.4,3.2,3.1h3.4c0-1.1-0.3-2.2-0.9-3.1l0,0c-1.1-2-3.2-3.3-5.6-3.4
			c-0.1,0-0.1,0-0.2,0c-0.1,0-0.1,0-0.2,0h-7.1c-2.5,0-4.6,1.4-5.8,3.4c-0.6,1-0.9,2.1-0.9,3.3s0.3,2.3,0.9,3.3
			c0.3,0.5,0.6,0.9,1,1.3c1.2,1.2,2.9,2,4.8,2h7.3c1.8,0,3.3,1.5,3.3,3.3s-1.5,3.3-3.3,3.3h-7.2c-1.8,0-3.2-1.4-3.3-3.1h-3.4
			c0,1.1,0.3,2.2,0.9,3.1c1.1,2,3.3,3.4,5.8,3.4h7.2c2.5,0,4.6-1.4,5.8-3.4c0.6-1,0.9-2.1,0.9-3.3s-0.3-2.3-0.9-3.3
			c-1.1-2-3.3-3.4-5.8-3.4h-6.7c-0.2,0-0.4,0-0.6,0c-0.1,0-0.2,0-0.3,0c-1.7-0.2-3-1.6-3-3.3C826,25.2,827.5,23.7,829.3,23.7z"/>
		
			<linearGradient id="SVGID_24_" gradientUnits="userSpaceOnUse" x1="822.2709" y1="32.8696" x2="951.9731" y2="47.6781" gradientTransform="matrix(1 0 0 -1 0 69.4468)">
			<stop  offset="0" style="stop-color:#7c14ec"/>
			<stop  offset="1" style="stop-color:#df1ac5"/>
		</linearGradient>
		<polygon class="st24" points="873.1,35.4 868.3,24.7 866.5,20.6 866.4,20.6 864.6,24.7 859.8,35.4 853.1,20.6 849.4,20.6 
			857.9,39.5 859.8,43.6 861.6,39.5 866.4,28.8 871.3,39.5 873.1,43.6 875,39.5 883.5,20.6 879.8,20.6 		"/>
		
			<linearGradient id="SVGID_25_" gradientUnits="userSpaceOnUse" x1="823.0041" y1="26.4484" x2="952.7062" y2="41.2569" gradientTransform="matrix(1 0 0 -1 0 69.4468)">
			<stop  offset="0" style="stop-color:#7c14ec"/>
			<stop  offset="1" style="stop-color:#df1ac5"/>
		</linearGradient>
		<path class="st25" d="M936.1,26.6c0-3.3-2.6-6-5.9-6.2l0,0h-12.8v23.2h3.4V32.8h9.7l0,0C933.6,32.5,936.1,29.8,936.1,26.6z
			 M930,29.4h-9.2v-5.7h8.9l0,0c0.1,0,0.1,0,0.2,0c1.6,0,2.8,1.3,2.8,2.8S931.5,29.4,930,29.4z"/>
		
			<linearGradient id="SVGID_26_" gradientUnits="userSpaceOnUse" x1="822.7919" y1="28.3067" x2="952.4941" y2="43.1152" gradientTransform="matrix(1 0 0 -1 0 69.4468)">
			<stop  offset="0" style="stop-color:#7c14ec"/>
			<stop  offset="1" style="stop-color:#df1ac5"/>
		</linearGradient>
		<path class="st26" d="M897.7,22.2l-1-1.9l0,0l0,0l0,0l0,0l-1,1.9l-1.2,2.1l-10.7,19.3h4.4l0,0l3.6-6.6h9.6l3.6,6.6l0,0h4.4
			l-10.7-19.3L897.7,22.2z M893.6,33.7l3-5.4l3,5.4H893.6z"/>
	</g>
</g>
<g id="Шар_3">
	<rect x="243" y="365.4" class="st27" width="179.7" height="69.4"/>
	
		<text transform="matrix(1 0 0 1 243.0212 388.6326)" style="display:none;enable-background:new    ; font-family:'AquireRegular'; font-size:35px; letter-spacing:4;">LABS</text>
	<g>
		<g>
			<g class="st0">
				
					<linearGradient id="SVGID_27_" gradientUnits="userSpaceOnUse" x1="1442.356" y1="36.057" x2="1556.7823" y2="57.9138" gradientTransform="matrix(1 0 0 -1 0 69.4468)">
					<stop  offset="0" style="stop-color:#7c14ec"/>
					<stop  offset="1" style="stop-color:#df1ac5"/>
				</linearGradient>
				<polygon class="st28" points="1445.3,20 1442,20 1442,43.4 1460.1,43.4 1460.1,40.1 1445.3,40.1 				"/>
				
					<linearGradient id="SVGID_28_" gradientUnits="userSpaceOnUse" x1="1445.7654" y1="29.8201" x2="1560.1918" y2="51.6768" gradientTransform="matrix(1 0 0 -1 0 69.4468)">
					<stop  offset="0" style="stop-color:#7c14ec"/>
					<stop  offset="1" style="stop-color:#df1ac5"/>
				</linearGradient>
				<path class="st29" d="M1481.5,22l-1-1.9l0,0l0,0l0,0l0,0l-1,1.9l-1.2,2.1l-10.7,19.3h4.4l0,0l3.6-6.6h9.6l3.6,6.6l0,0h4.4
					l-10.7-19.3L1481.5,22z M1477.5,33.5l3-5.4l3,5.4H1477.5z"/>
				
					<linearGradient id="SVGID_29_" gradientUnits="userSpaceOnUse" x1="1448.7249" y1="25.9392" x2="1563.1514" y2="47.796" gradientTransform="matrix(1 0 0 -1 0 69.4468)">
					<stop  offset="0" style="stop-color:#7c14ec"/>
					<stop  offset="1" style="stop-color:#df1ac5"/>
				</linearGradient>
				<path class="st30" d="M1520.9,31.8c-0.3-0.3-0.7-0.5-1-0.7c0.2-0.3,0.5-0.6,0.6-0.9c0,0,0,0,0-0.1c0.5-1,0.9-2.1,0.9-3.3
					s-0.3-2.3-0.8-3.2v-0.1c-1.1-2-3.3-3.3-5.8-3.3h-12.3v3.4h13c1.5,0.3,2.6,1.7,2.6,3.2c0,1.6-1.2,3-2.8,3.3h-9.5v-4.8h-3.3v18.1
					h12.3c0.3,0,0.6,0,0.9-0.1c0.3,0,0.6,0.1,0.9,0.1c2.5,0,4.7-1.4,5.8-3.4c0.5-1,0.8-2.1,0.8-3.2c0-1.2-0.3-2.3-0.8-3.2
					C1521.9,32.9,1521.4,32.3,1520.9,31.8z M1517.1,40h-11.4v-6.5h11.3c1.5,0.3,2.7,1.6,2.7,3.2C1519.7,38.3,1518.6,39.7,1517.1,40z
					"/>
				
					<linearGradient id="SVGID_30_" gradientUnits="userSpaceOnUse" x1="1451.9728" y1="20.5478" x2="1566.3993" y2="42.4046" gradientTransform="matrix(1 0 0 -1 0 69.4468)">
					<stop  offset="0" style="stop-color:#7c14ec"/>
					<stop  offset="1" style="stop-color:#df1ac5"/>
				</linearGradient>
				<path class="st31" d="M1545.3,30.1h-6.7c-0.2,0-0.4,0-0.6,0c-0.1,0-0.2,0-0.3,0c-1.7-0.2-3-1.6-3-3.3c0-1.8,1.5-3.3,3.3-3.3h7.4
					c1.7,0.1,3.1,1.4,3.2,3.1h3.4c0-1.1-0.3-2.2-0.9-3.1l0,0c-1.1-2-3.2-3.3-5.6-3.3c-0.1,0-0.1,0-0.2,0s-0.1,0-0.2,0h-7.1
					c-2.5,0-4.6,1.3-5.8,3.3c-0.6,1-0.9,2.1-0.9,3.3s0.3,2.3,0.9,3.3c0.3,0.5,0.6,0.9,1,1.3c1.2,1.2,2.9,2,4.8,2h7.2
					c1.8,0,3.3,1.5,3.3,3.3s-1.5,3.3-3.3,3.3h-7.2c-1.8,0-3.2-1.4-3.3-3.1h-3.4c0,1.1,0.3,2.2,0.9,3.1c1.1,2,3.3,3.3,5.8,3.3h7.2
					c2.5,0,4.6-1.3,5.8-3.3c0.6-1,0.9-2.1,0.9-3.3s-0.3-2.3-0.9-3.3C1549.9,31.5,1547.8,30.1,1545.3,30.1z"/>
			</g>
		</g>
	</g>
	<g class="st0">
		
			<linearGradient id="SVGID_31_" gradientUnits="userSpaceOnUse" x1="1426.4376" y1="36.9028" x2="1589.8418" y2="64.4772" gradientTransform="matrix(1 0 0 -1 0 69.4468)">
			<stop  offset="0" style="stop-color:#7c14ec"/>
			<stop  offset="1" style="stop-color:#df1ac5"/>
		</linearGradient>
		<path class="st32" d="M1440,20.5L1440,20.5h-12.8v23.2h3.4V32.9h9.7l0,0c3.2-0.3,5.7-2.9,5.7-6.2
			C1445.9,23.4,1443.3,20.7,1440,20.5z M1439.7,29.6h-9.1v-5.7h8.9l0,0c0.1,0,0.1,0,0.2,0c1.6,0,2.8,1.3,2.8,2.8
			S1441.3,29.6,1439.7,29.6z"/>
		
			<linearGradient id="SVGID_32_" gradientUnits="userSpaceOnUse" x1="1427.8872" y1="28.3122" x2="1591.2914" y2="55.8866" gradientTransform="matrix(1 0 0 -1 0 69.4468)">
			<stop  offset="0" style="stop-color:#7c14ec"/>
			<stop  offset="1" style="stop-color:#df1ac5"/>
		</linearGradient>
		<polygon class="st33" points="1458.9,33 1473.9,33 1473.9,29.6 1458.9,29.6 1458.9,25.6 1455.6,25.6 1455.6,43.8 1476.1,43.8 
			1476.1,40.4 1458.9,40.4 		"/>
		
			<linearGradient id="SVGID_33_" gradientUnits="userSpaceOnUse" x1="1425.8376" y1="40.4578" x2="1589.2418" y2="68.0323" gradientTransform="matrix(1 0 0 -1 0 69.4468)">
			<stop  offset="0" style="stop-color:#7c14ec"/>
			<stop  offset="1" style="stop-color:#df1ac5"/>
		</linearGradient>
		<rect x="1455.6" y="20.5" class="st34" width="20.6" height="3.4"/>
		
			<linearGradient id="SVGID_34_" gradientUnits="userSpaceOnUse" x1="1428.3284" y1="25.6982" x2="1591.7325" y2="53.2727" gradientTransform="matrix(1 0 0 -1 0 69.4468)">
			<stop  offset="0" style="stop-color:#7c14ec"/>
			<stop  offset="1" style="stop-color:#df1ac5"/>
		</linearGradient>
		<path class="st35" d="M1499.4,31.1L1499.4,31.1C1499.5,31.1,1499.5,31.1,1499.4,31.1c0.2-0.1,0.2-0.1,0.3-0.2l0,0
			c0.1,0,0.1-0.1,0.2-0.1c0.1-0.1,0.3-0.2,0.4-0.3l0.1-0.1l0.1-0.1c0.1-0.1,0.1-0.1,0.2-0.2l0,0c0.1,0,0.1-0.1,0.2-0.1
			c0.2-0.1,0.3-0.3,0.4-0.4c1.6-1.5,2.7-3.5,3.2-5.8c0.2-0.8,0.3-1.7,0.3-2.5c0-0.3,0-0.5,0-0.8h-19.3v23.3h3.4V32.9h4.3
			c0.1,0,0.2,0,0.2,0h0.1c0.1,0,0.1,0,0.2,0l0,0c0.1,0,0.2,0,0.3,0l0,0c0.1,0,0.2,0,0.3,0s0.2,0,0.2,0h0.1c0.1,0,0.2,0,0.2,0h0.1
			c0.1,0,0.1,0,0.2,0c0.2,0,0.4-0.1,0.6-0.1c0.1,0,0.2,0,0.3-0.1c0,0,0,0,0.1,0s0.1,0,0.2,0l0,0l0.2,0.3l6.7,11h3.9l-7.3-12
			L1499.4,31.1z M1496.4,28.9c-1,0.4-2.1,0.7-3.3,0.7h-4.3v-5.8h12.2c-0.4,1.3-1.1,2.4-2.1,3.4C1498.2,27.9,1497.4,28.5,1496.4,28.9
			z"/>
		
			<linearGradient id="SVGID_35_" gradientUnits="userSpaceOnUse" x1="1428.9072" y1="22.2671" x2="1592.3115" y2="49.8416" gradientTransform="matrix(1 0 0 -1 0 69.4468)">
			<stop  offset="0" style="stop-color:#7c14ec"/>
			<stop  offset="1" style="stop-color:#df1ac5"/>
		</linearGradient>
		<path class="st36" d="M1529.2,20.5L1529.2,20.5h-12.8v23.2h3.4V32.9h9.7l0,0c3.2-0.3,5.7-2.9,5.7-6.2
			C1535.1,23.4,1532.5,20.7,1529.2,20.5z M1528.9,29.6h-9.1v-5.7h8.9l0,0c0.1,0,0.1,0,0.2,0c1.6,0,2.8,1.3,2.8,2.8
			S1530.5,29.6,1528.9,29.6z"/>
		
			<linearGradient id="SVGID_36_" gradientUnits="userSpaceOnUse" x1="1429.9164" y1="16.287" x2="1593.3207" y2="43.8615" gradientTransform="matrix(1 0 0 -1 0 69.4468)">
			<stop  offset="0" style="stop-color:#7c14ec"/>
			<stop  offset="1" style="stop-color:#df1ac5"/>
		</linearGradient>
		<path class="st37" d="M1557.9,30.5h-6.7c-0.2,0-0.4,0-0.6,0c-0.1,0-0.2,0-0.3,0c-1.7-0.2-3-1.6-3-3.3c0-1.8,1.5-3.3,3.3-3.3h7.4
			c1.7,0.1,3.1,1.4,3.2,3.1h3.4c0-1.1-0.3-2.2-0.9-3.1l0,0c-1.1-2-3.2-3.3-5.6-3.4c-0.1,0-0.1,0-0.2,0s-0.1,0-0.2,0h-7.1
			c-2.5,0-4.6,1.4-5.8,3.4c-0.6,1-0.9,2.1-0.9,3.3s0.3,2.3,0.9,3.3c0.3,0.5,0.6,0.9,1,1.3c1.2,1.2,2.9,2,4.8,2h7.3
			c1.8,0,3.3,1.5,3.3,3.3s-1.5,3.3-3.3,3.3h-7.2c-1.8,0-3.2-1.4-3.3-3.1h-3.4c0,1.1,0.3,2.2,0.9,3.1c1.1,2,3.3,3.4,5.8,3.4h7.2
			c2.5,0,4.6-1.4,5.8-3.4c0.6-1,0.9-2.1,0.9-3.3s-0.3-2.3-0.9-3.3C1562.5,31.8,1560.4,30.5,1557.9,30.5z"/>
	</g>
</g>
</svg>
