<?xml version="1.0" encoding="utf-8"?>
<!-- Generator: Adobe Illustrator 23.0.5, SVG Export Plug-In . SVG Version: 6.00 Build 0)  -->
<svg version="1.1" id="Шар_1" xmlns="http://www.w3.org/2000/svg" xmlns:xlink="http://www.w3.org/1999/xlink" x="0px" y="0px"
	 viewBox="0 0 356.4 65.9" style="enable-background:new 0 0 356.4 65.9;" xml:space="preserve">
<style type="text/css">
	.st0{display:none;}
	.st1{display:inline;}
	.st2{clip-path:url(#SVGID_2_);}
	.st3{clip-path:url(#SVGID_4_);}
	.st4{display:inline;fill:url(#SVGID_5_);}
	.st5{display:inline;fill:url(#SVGID_6_);}
	.st6{display:inline;fill:url(#SVGID_7_);}
	.st7{display:inline;fill:url(#SVGID_8_);}
	.st8{display:inline;fill:url(#SVGID_9_);}
	.st9{display:inline;fill:url(#SVGID_10_);}
	.st10{display:inline;fill:url(#SVGID_11_);}
	.st11{display:inline;fill:url(#SVGID_12_);}
	.st12{fill:#00222D;}
	.st13{fill:url(#SVGID_13_);}
	.st14{fill:url(#SVGID_14_);}
	.st15{fill:url(#SVGID_15_);}
	.st16{fill:url(#SVGID_16_);}
	.st17{fill:url(#SVGID_17_);}
	.st18{fill:url(#SVGID_18_);}
</style>
<g>
	<g class="st0">
		<g class="st1">
			<g>
				<defs>
					<rect id="SVGID_1_" x="-209.6" y="-288.4" width="509" height="514.1"/>
				</defs>
				<clipPath id="SVGID_2_">
					<use xlink:href="#SVGID_1_"  style="overflow:visible;"/>
				</clipPath>
				<g class="st2">
					
						<image style="overflow:visible;enable-background:new    ;" width="510" height="510" xlink:href="69BEF386.png"  transform="matrix(1 0 0 1 -211.5973 -284.4043)">
					</image>
				</g>
			</g>
			<g>
				<defs>
					<rect id="SVGID_3_" x="-209.6" y="-288.4" width="509" height="514.1"/>
				</defs>
				<clipPath id="SVGID_4_">
					<use xlink:href="#SVGID_3_"  style="overflow:visible;"/>
				</clipPath>
				<g class="st3">
					
						<image style="overflow:visible;enable-background:new    ;" width="1126" height="2502" xlink:href="69BEF387.png"  transform="matrix(1 0 0 1 -366.5973 -610.4042)">
					</image>
				</g>
			</g>
		</g>
	</g>
	<g>
		<g>
			<g class="st0">
				
					<linearGradient id="SVGID_5_" gradientUnits="userSpaceOnUse" x1="107.1175" y1="-33.2632" x2="221.544" y2="-11.4064" gradientTransform="matrix(1 0 0 -1 0 -70.8085)">
					<stop  offset="0" style="stop-color:#7c14ec"/>
					<stop  offset="1" style="stop-color:#df1ac5"/>
				</linearGradient>
				<polygon class="st4" points="110.1,-50.9 106.8,-50.9 106.8,-27.5 124.8,-27.5 124.8,-30.8 110.1,-30.8 				"/>
				
					<linearGradient id="SVGID_6_" gradientUnits="userSpaceOnUse" x1="110.5288" y1="-39.5094" x2="224.9553" y2="-17.6527" gradientTransform="matrix(1 0 0 -1 0 -70.8085)">
					<stop  offset="0" style="stop-color:#7c14ec"/>
					<stop  offset="1" style="stop-color:#df1ac5"/>
				</linearGradient>
				<path class="st5" d="M146.3-48.9l-1-1.9l0,0l0,0l0,0l0,0l-1,1.9l-1.2,2.1l-10.7,19.3h4.4l0,0l3.6-6.6h9.6l3.6,6.6l0,0h4.4
					l-10.7-19.3L146.3-48.9z M142.2-37.4l3-5.4l3,5.4H142.2z"/>
				
					<linearGradient id="SVGID_7_" gradientUnits="userSpaceOnUse" x1="113.4848" y1="-43.3718" x2="227.9112" y2="-21.515" gradientTransform="matrix(1 0 0 -1 0 -70.8085)">
					<stop  offset="0" style="stop-color:#7c14ec"/>
					<stop  offset="1" style="stop-color:#df1ac5"/>
				</linearGradient>
				<path class="st6" d="M185.6-39.1c-0.3-0.3-0.7-0.5-1-0.7c0.2-0.3,0.5-0.6,0.6-0.9c0,0,0,0,0-0.1c0.5-1,0.9-2.1,0.9-3.3
					s-0.3-2.3-0.8-3.2v-0.1c-1.1-2-3.3-3.3-5.8-3.3h-12.3v3.4h13c1.5,0.3,2.6,1.7,2.6,3.2c0,1.6-1.2,3-2.8,3.3h-9.5v-4.8h-3.3v18.1
					h12.3c0.3,0,0.6,0,0.9-0.1c0.3,0,0.6,0.1,0.9,0.1c2.5,0,4.7-1.4,5.8-3.4c0.5-1,0.8-2.1,0.8-3.2c0-1.2-0.3-2.3-0.8-3.2
					C186.7-38,186.2-38.6,185.6-39.1z M181.9-30.9h-11.4v-6.5h11.3c1.5,0.3,2.7,1.6,2.7,3.2C184.5-32.5,183.4-31.2,181.9-30.9z"/>
				
					<linearGradient id="SVGID_8_" gradientUnits="userSpaceOnUse" x1="116.7547" y1="-48.8781" x2="231.1812" y2="-27.0213" gradientTransform="matrix(1 0 0 -1 0 -70.8085)">
					<stop  offset="0" style="stop-color:#7c14ec"/>
					<stop  offset="1" style="stop-color:#df1ac5"/>
				</linearGradient>
				<path class="st7" d="M210.1-40.7h-6.7c-0.2,0-0.4,0-0.6,0c-0.1,0-0.2,0-0.3,0c-1.7-0.2-3-1.6-3-3.3c0-1.8,1.5-3.3,3.3-3.3h7.4
					c1.7,0.1,3.1,1.4,3.2,3.1h3.4c0-1.1-0.3-2.2-0.9-3.1l0,0c-1.1-2-3.2-3.3-5.6-3.3c-0.1,0-0.1,0-0.2,0s-0.1,0-0.2,0h-7.1
					c-2.5,0-4.6,1.3-5.8,3.3c-0.6,1-0.9,2.1-0.9,3.3s0.3,2.3,0.9,3.3c0.3,0.5,0.6,0.9,1,1.3c1.2,1.2,2.9,2,4.8,2h7.2
					c1.8,0,3.3,1.5,3.3,3.3s-1.5,3.3-3.3,3.3h-7.2c-1.8,0-3.2-1.4-3.3-3.1h-3.4c0,1.1,0.3,2.2,0.9,3.1c1.1,2,3.3,3.3,5.8,3.3h7.2
					c2.5,0,4.6-1.3,5.8-3.3c0.6-1,0.9-2.1,0.9-3.3s-0.3-2.3-0.9-3.3C214.7-39.4,212.6-40.7,210.1-40.7z"/>
			</g>
		</g>
	</g>
	<g>
		<g>
			<g class="st0">
				
					<linearGradient id="SVGID_9_" gradientUnits="userSpaceOnUse" x1="686.1176" y1="-36.2632" x2="800.5441" y2="-14.4064" gradientTransform="matrix(1 0 0 -1 0 -70.8085)">
					<stop  offset="0" style="stop-color:#7c14ec"/>
					<stop  offset="1" style="stop-color:#df1ac5"/>
				</linearGradient>
				<polygon class="st8" points="689.1,-47.9 685.8,-47.9 685.8,-24.5 703.8,-24.5 703.8,-27.8 689.1,-27.8 				"/>
				
					<linearGradient id="SVGID_10_" gradientUnits="userSpaceOnUse" x1="689.5288" y1="-42.5094" x2="803.9553" y2="-20.6527" gradientTransform="matrix(1 0 0 -1 0 -70.8085)">
					<stop  offset="0" style="stop-color:#7c14ec"/>
					<stop  offset="1" style="stop-color:#df1ac5"/>
				</linearGradient>
				<path class="st9" d="M725.3-45.9l-1-1.9l0,0l0,0l0,0l0,0l-1,1.9l-1.2,2.1l-10.7,19.3h4.4l0,0l3.6-6.6h9.6l3.6,6.6l0,0h4.4
					l-10.7-19.3L725.3-45.9z M721.2-34.4l3-5.4l3,5.4H721.2z"/>
				
					<linearGradient id="SVGID_11_" gradientUnits="userSpaceOnUse" x1="692.4848" y1="-46.3718" x2="806.9112" y2="-24.515" gradientTransform="matrix(1 0 0 -1 0 -70.8085)">
					<stop  offset="0" style="stop-color:#7c14ec"/>
					<stop  offset="1" style="stop-color:#df1ac5"/>
				</linearGradient>
				<path class="st10" d="M764.6-36.1c-0.3-0.3-0.7-0.5-1-0.7c0.2-0.3,0.5-0.6,0.6-0.9c0,0,0,0,0-0.1c0.5-1,0.9-2.1,0.9-3.3
					s-0.3-2.3-0.8-3.2v-0.1c-1.1-2-3.3-3.3-5.8-3.3h-12.3v3.4h13c1.5,0.3,2.6,1.7,2.6,3.2c0,1.6-1.2,3-2.8,3.3h-9.5v-4.8h-3.3v18.1
					h12.3c0.3,0,0.6,0,0.9-0.1c0.3,0,0.6,0.1,0.9,0.1c2.5,0,4.7-1.4,5.8-3.4c0.5-1,0.8-2.1,0.8-3.2c0-1.2-0.3-2.3-0.8-3.2
					C765.7-35,765.2-35.6,764.6-36.1z M760.9-27.9h-11.4v-6.5h11.3c1.5,0.3,2.7,1.6,2.7,3.2C763.5-29.5,762.4-28.2,760.9-27.9z"/>
				
					<linearGradient id="SVGID_12_" gradientUnits="userSpaceOnUse" x1="695.7547" y1="-51.8781" x2="810.1811" y2="-30.0213" gradientTransform="matrix(1 0 0 -1 0 -70.8085)">
					<stop  offset="0" style="stop-color:#7c14ec"/>
					<stop  offset="1" style="stop-color:#df1ac5"/>
				</linearGradient>
				<path class="st11" d="M789.1-37.7h-6.7c-0.2,0-0.4,0-0.6,0c-0.1,0-0.2,0-0.3,0c-1.7-0.2-3-1.6-3-3.3c0-1.8,1.5-3.3,3.3-3.3h7.4
					c1.7,0.1,3.1,1.4,3.2,3.1h3.4c0-1.1-0.3-2.2-0.9-3.1l0,0c-1.1-2-3.2-3.3-5.6-3.3c-0.1,0-0.1,0-0.2,0c-0.1,0-0.1,0-0.2,0h-7.1
					c-2.5,0-4.6,1.3-5.8,3.3c-0.6,1-0.9,2.1-0.9,3.3s0.3,2.3,0.9,3.3c0.3,0.5,0.6,0.9,1,1.3c1.2,1.2,2.9,2,4.8,2h7.2
					c1.8,0,3.3,1.5,3.3,3.3s-1.5,3.3-3.3,3.3h-7.2c-1.8,0-3.2-1.4-3.3-3.1h-3.4c0,1.1,0.3,2.2,0.9,3.1c1.1,2,3.3,3.3,5.8,3.3h7.2
					c2.5,0,4.6-1.3,5.8-3.3c0.6-1,0.9-2.1,0.9-3.3s-0.3-2.3-0.9-3.3C793.7-36.4,791.6-37.7,789.1-37.7z"/>
			</g>
		</g>
	</g>
</g>
<g>
	<g>
		<path class="st12" d="M105.4,21.3v23.1H102V29.4L97.5,34l-1.1,1.1l-1.3,1.3L88,29.3v0l-3.3-3.3v-4.7l10.4,10.4L105.4,21.3z
			 M84.7,24.5l3.3,4.3v15.7h-3.3V24.5z"/>
		<path class="st12" d="M123.6,27.2l2.2,4l-7.4,13.3H114L123.6,27.2z M139.8,44.5h-4.4l-8.5-15.3l-2.2-4l2.2-4l0,0l2.2,4L139.8,44.5
			z"/>
		<path class="st12" d="M139.8,44.5h-4.4L128,31.2l2.2-4L139.8,44.5z M124.7,25.2l2.2-4l0,0l2.2,4l-2.2,4l-8.5,15.3H114L124.7,25.2z
			"/>
		<path class="st12" d="M140.8,24.6v-3.3h20.7v3.3H140.8z M149.3,44.5V26.3h3.3v18.2H149.3z"/>
		<path class="st12" d="M191.7,44.5h-3.9l-6.7-11l-0.2-0.3c0,0,0,0,0,0c-0.1,0-0.1,0-0.2,0c0,0,0,0-0.1,0c-0.1,0-0.2,0-0.3,0.1
			c-0.2,0-0.4,0.1-0.6,0.1c-0.1,0-0.1,0-0.2,0c0,0-0.1,0-0.1,0c-0.1,0-0.1,0-0.2,0c0,0-0.1,0-0.1,0c-0.1,0-0.2,0-0.2,0
			c-0.1,0-0.2,0-0.3,0c0,0,0,0,0,0c-0.1,0-0.2,0-0.3,0c0,0,0,0,0,0c-0.1,0-0.1,0-0.2,0c0,0-0.1,0-0.1,0c-0.1,0-0.2,0-0.2,0h-4.3
			v10.8h-3.3V21.2h19.2c0,0.3,0,0.5,0,0.8c0,0.9-0.1,1.7-0.3,2.5c-0.5,2.2-1.6,4.2-3.2,5.7c-0.1,0.1-0.3,0.3-0.4,0.4
			c-0.1,0-0.1,0.1-0.2,0.1c0,0,0,0,0,0c-0.1,0.1-0.1,0.1-0.2,0.2c0,0-0.1,0.1-0.1,0.1c0,0-0.1,0.1-0.1,0.1c-0.1,0.1-0.3,0.2-0.4,0.3
			c-0.1,0-0.1,0.1-0.2,0.1c0,0,0,0,0,0c-0.1,0-0.1,0.1-0.2,0.1c0,0,0,0,0,0c0,0,0,0-0.1,0l0.4,0.7L191.7,44.5z M183.6,27.9
			c1-0.9,1.7-2.1,2.1-3.4h-12.2v5.7h4.3c1.1,0,2.3-0.2,3.3-0.7C182,29.2,182.9,28.6,183.6,27.9z"/>
		<path class="st12" d="M200.8,44.5V21.2h3.3v23.3H200.8z M200.8,21.2v23.3h3.3V21.2H200.8z M204,21.3h-3.1v23h3.1V21.3z"/>
		<path class="st12" d="M221,33.9l2.1,2.8l-5.7,7.8h-4.2L221,33.9z M235.1,44.5h-4.2l-6.8-9.2l0,0l-2.1-2.8l0,0l-0.3-0.4l-7.9-10.8
			h4.2l5.9,8l0.3,0.4l0.3-0.4l5.9-8h4.2l-7.9,10.8l-0.3,0.4L235.1,44.5z"/>
		<g>
			<linearGradient id="SVGID_13_" gradientUnits="userSpaceOnUse" x1="244.4303" y1="34.448" x2="358.8568" y2="12.5913">
				<stop  offset="0" style="stop-color:#7c14ec"/>
				<stop  offset="1" style="stop-color:#df1ac5"/>
			</linearGradient>
			<polygon class="st13" points="247.4,21.1 244.1,21.1 244.1,44.5 262.2,44.5 262.2,41.1 247.4,41.1 			"/>
			<linearGradient id="SVGID_14_" gradientUnits="userSpaceOnUse" x1="247.842" y1="40.6964" x2="362.2684" y2="18.8396">
				<stop  offset="0" style="stop-color:#7c14ec"/>
				<stop  offset="1" style="stop-color:#df1ac5"/>
			</linearGradient>
			<path class="st14" d="M283.6,23.1l-1-1.9l0,0l0,0l0,0l0,0l-1,1.9l-1.2,2.1l-10.7,19.3h4.4h0l3.6-6.6h9.6l3.6,6.6h0h4.4
				l-10.7-19.3L283.6,23.1z M279.6,34.6l3-5.4l3,5.4H279.6z"/>
			<linearGradient id="SVGID_15_" gradientUnits="userSpaceOnUse" x1="250.7861" y1="44.4971" x2="365.2126" y2="22.6404">
				<stop  offset="0" style="stop-color:#7c14ec"/>
				<stop  offset="1" style="stop-color:#df1ac5"/>
			</linearGradient>
			<path class="st15" d="M323,32.8c-0.3-0.3-0.7-0.5-1-0.7c0.2-0.3,0.5-0.6,0.6-0.9c0,0,0,0,0-0.1c0.5-1,0.9-2.1,0.9-3.3
				c0-1.2-0.3-2.3-0.8-3.2c0,0,0-0.1,0-0.1c-1.1-2-3.3-3.3-5.8-3.3h-12.3v3.4h13c1.5,0.3,2.6,1.7,2.6,3.2c0,1.6-1.2,3-2.8,3.3h-9.5
				v-4.8h-3.3v18.1h12.3c0.3,0,0.6,0,0.9-0.1c0.3,0,0.6,0.1,0.9,0.1c2.5,0,4.7-1.4,5.8-3.4c0.5-1,0.8-2.1,0.8-3.2
				c0-1.2-0.3-2.3-0.8-3.2C324,33.9,323.5,33.3,323,32.8z M319.2,41.1h-11.4v-6.5h11.3c1.5,0.3,2.7,1.6,2.7,3.2
				C321.8,39.4,320.7,40.7,319.2,41.1z"/>
			<linearGradient id="SVGID_16_" gradientUnits="userSpaceOnUse" x1="254.0572" y1="50.0091" x2="368.4836" y2="28.1524">
				<stop  offset="0" style="stop-color:#7c14ec"/>
				<stop  offset="1" style="stop-color:#df1ac5"/>
			</linearGradient>
			<path class="st16" d="M347.4,31.2h-6.7c-0.2,0-0.4,0-0.6,0c-0.1,0-0.2,0-0.3,0c-1.7-0.2-3-1.6-3-3.3c0-1.8,1.5-3.3,3.3-3.3h7.4
				c1.7,0.1,3.1,1.4,3.2,3.1h3.4c0-1.1-0.3-2.2-0.9-3.1c0,0,0,0,0,0c-1.1-2-3.2-3.3-5.6-3.3c-0.1,0-0.1,0-0.2,0c-0.1,0-0.1,0-0.2,0
				h-7.1c-2.5,0-4.6,1.3-5.8,3.3c-0.6,1-0.9,2.1-0.9,3.3c0,1.2,0.3,2.3,0.9,3.3c0.3,0.5,0.6,0.9,1,1.3c1.2,1.2,2.9,2,4.8,2h7.2
				c1.8,0,3.3,1.5,3.3,3.3c0,1.8-1.5,3.3-3.3,3.3h-7.2c-1.8,0-3.2-1.4-3.3-3.1h-3.4c0,1.1,0.3,2.2,0.9,3.1c1.1,2,3.3,3.3,5.8,3.3
				h7.2c2.5,0,4.6-1.3,5.8-3.3c0.6-1,0.9-2.1,0.9-3.3c0-1.2-0.3-2.3-0.9-3.3C352,32.5,349.9,31.2,347.4,31.2z"/>
		</g>
	</g>
	<rect x="121" y="34.5" class="st12" width="11.1" height="3.3"/>
	<g>
		<linearGradient id="SVGID_17_" gradientUnits="userSpaceOnUse" x1="7.1671" y1="55.4229" x2="54.3483" y2="12.6563">
			<stop  offset="0" style="stop-color:#7c14ec"/>
			<stop  offset="1" style="stop-color:#df1ac5"/>
		</linearGradient>
		<path class="st17" d="M52,9.3c-5.2-4.2-11.7-6.6-18.4-6.7c-4.6-0.1-9,0.8-13.1,2.6c-3.8,1.7-7.1,4-9.9,7h3.6
			c2.2-1.9,4.6-3.5,7.3-4.7c3.6-1.6,7.4-2.4,11.3-2.4c7.5,0,14.5,2.9,19.8,8.2c5.3,5.3,8.2,12.3,8.2,19.8c0,2.4-0.3,4.9-0.9,7.2
			c-0.6,2.2-1.4,4.3-2.5,6.2l-16.1,0V33.3l0.1-5.4l-3.5,5.5l-5,7.8l-4.3-6.6L24.3,28v6.2l0,0l0,12.3h-7.5V22.3l-2.6,3.2v23.6h12.6
			V36.8l4.7,7.3c0.2,0.4,1.2,1.8,1.2,1.8s1.2-1.7,1.2-1.7l4.8-7.3v10.6l0,1.7c0,0,0,0,0,0l19.4,0c0.5,0,0.9-0.2,1.1-0.6l0.1-0.1
			c1.3-2.3,2.4-4.8,3-7.3c0.7-2.6,1-5.2,1-7.9C63.4,23.8,59.3,15.2,52,9.3z"/>
		<linearGradient id="SVGID_18_" gradientUnits="userSpaceOnUse" x1="7.8856" y1="56.2156" x2="55.0668" y2="13.4489">
			<stop  offset="0" style="stop-color:#7c14ec"/>
			<stop  offset="1" style="stop-color:#df1ac5"/>
		</linearGradient>
		<path class="st18" d="M44.8,58.3C41.1,60.1,37,61,32.9,61c-7.5,0-14.5-2.9-19.8-8.2C7.8,47.5,4.9,40.5,4.9,33
			c0-2.7,0.4-5.5,1.2-8.1c0.7-2.4,1.8-4.7,3.1-6.8l16.4,0l5.2,8.6l2.1,3.5l2.1-3.5l5.2-8.6h8.8v24l2.6-3.1V15.7H39.7l-0.9,0h-0.1
			L38,16.9l-5.2,8.5l-5.2-8.5L27,15.6l-2.7,0l0,0l-16.5,0c-1.8,2.6-3.2,5.5-4.2,8.6c-0.9,2.8-1.3,5.8-1.3,8.8
			c0,8.1,3.2,15.8,8.9,21.6c5.8,5.8,13.4,8.9,21.6,8.9c4.6,0,8.9-1,13-2.9c4-1.9,7.6-4.7,10.4-8.1h-3.4
			C50.5,54.9,47.8,56.9,44.8,58.3z"/>
	</g>
</g>
</svg>
