<?xml version="1.0" encoding="utf-8"?>
<!-- Generator: Adobe Illustrator 23.0.5, SVG Export Plug-In . SVG Version: 6.00 Build 0)  -->
<svg version="1.1" id="Шар_1" xmlns="http://www.w3.org/2000/svg" xmlns:xlink="http://www.w3.org/1999/xlink" x="0px" y="0px"
	 viewBox="0 0 329.2 65" style="enable-background:new 0 0 329.2 65;" xml:space="preserve">
<style type="text/css">
	.st0{fill:#001625;}
	.st1{fill:url(#SVGID_1_);}
	.st2{fill:url(#SVGID_2_);}
	.st3{fill:url(#SVGID_3_);}
	.st4{fill:url(#SVGID_4_);}
	.st5{fill:url(#SVGID_5_);}
	.st6{fill:url(#SVGID_6_);}
</style>
<path class="st0" d="M104.9,21.2v23.1h-3.3V29.3L97,33.8l-1.1,1.1l-1.3,1.3l-7.1-7.1v0l-3.3-3.3V21l10.4,10.4L104.9,21.2z
	 M84.2,24.4l3.3,4.3v15.7h-3.3V24.4z"/>
<path class="st0" d="M123.2,27l2.2,4L118,44.3h-4.4L123.2,27z M139.4,44.3H135L126.5,29l-2.2-4l2.2-4l0,0l2.2,4L139.4,44.3z"/>
<path class="st0" d="M139.4,44.3H135L127.6,31l2.2-4L139.4,44.3z M124.3,25l2.2-4l0,0l2.2,4l-2.2,4L118,44.3h-4.4L124.3,25z"/>
<path class="st0" d="M140.4,24.5v-3.3h20.7v3.3H140.4z M148.9,44.3V26.1h3.3v18.2H148.9z"/>
<path class="st0" d="M191.3,44.3h-3.9l-6.7-11l-0.2-0.3c0,0,0,0,0,0c-0.1,0-0.1,0-0.2,0c0,0,0,0-0.1,0c-0.1,0-0.2,0-0.3,0.1
	c-0.2,0-0.4,0.1-0.6,0.1c-0.1,0-0.1,0-0.2,0c0,0-0.1,0-0.1,0c-0.1,0-0.1,0-0.2,0c0,0-0.1,0-0.1,0c-0.1,0-0.2,0-0.2,0
	c-0.1,0-0.2,0-0.3,0c0,0,0,0,0,0c-0.1,0-0.2,0-0.3,0c0,0,0,0,0,0c-0.1,0-0.1,0-0.2,0c0,0-0.1,0-0.1,0c-0.1,0-0.2,0-0.2,0h-4.3v10.8
	h-3.3V21.1H189c0,0.3,0,0.5,0,0.8c0,0.9-0.1,1.7-0.3,2.5c-0.5,2.2-1.6,4.2-3.2,5.7c-0.1,0.1-0.3,0.3-0.4,0.4c-0.1,0-0.1,0.1-0.2,0.1
	c0,0,0,0,0,0c-0.1,0.1-0.1,0.1-0.2,0.2c0,0-0.1,0.1-0.1,0.1c0,0-0.1,0.1-0.1,0.1c-0.1,0.1-0.3,0.2-0.4,0.3c-0.1,0-0.1,0.1-0.2,0.1
	c0,0,0,0,0,0c-0.1,0-0.1,0.1-0.2,0.1c0,0,0,0,0,0c0,0,0,0-0.1,0l0.4,0.7L191.3,44.3z M183.2,27.8c1-0.9,1.7-2.1,2.1-3.4h-12.2v5.7
	h4.3c1.1,0,2.3-0.2,3.3-0.7C181.6,29.1,182.5,28.5,183.2,27.8z"/>
<path class="st0" d="M200.4,44.3V21.1h3.3v23.3H200.4z M200.4,21.1v23.3h3.3V21.1H200.4z M203.6,21.2h-3.1v23h3.1V21.2z"/>
<path class="st0" d="M220.6,33.7l2.1,2.8l-5.7,7.8h-4.2L220.6,33.7z M234.6,44.3h-4.2l-6.8-9.2l0,0l-2.1-2.8l0,0l-0.3-0.4l-7.9-10.8
	h4.2l5.9,8l0.3,0.4l0.3-0.4l5.9-8h4.2l-7.9,10.8l-0.3,0.4L234.6,44.3z"/>
<rect x="120.6" y="34.4" class="st0" width="11.1" height="3.3"/>
<g>
	<linearGradient id="SVGID_1_" gradientUnits="userSpaceOnUse" x1="6.7581" y1="55.274" x2="53.9394" y2="12.5073">
		<stop  offset="0" style="stop-color:#7c14ec"/>
		<stop  offset="1" style="stop-color:#df1ac5"/>
	</linearGradient>
	<path class="st1" d="M51.6,9.1c-5.2-4.2-11.7-6.6-18.4-6.7c-4.6-0.1-9,0.8-13.1,2.6c-3.8,1.7-7.1,4-9.9,7h3.6
		c2.2-1.9,4.6-3.5,7.3-4.7C24.7,5.8,28.5,5,32.5,5c7.5,0,14.5,2.9,19.8,8.2c5.3,5.3,8.2,12.3,8.2,19.8c0,2.4-0.3,4.9-0.9,7.2
		c-0.6,2.2-1.4,4.3-2.5,6.2l-16.1,0V33.2l0.1-5.4l-3.5,5.5l-5,7.8l-4.3-6.6l-4.2-6.7v6.2l0,0l0,12.3h-7.5V22.2l-2.6,3.2v23.6h12.6
		V36.7l4.7,7.3c0.2,0.4,1.2,1.8,1.2,1.8s1.2-1.7,1.2-1.7l4.8-7.3v10.6l0,1.7c0,0,0,0,0,0l19.4,0c0.5,0,0.9-0.2,1.1-0.6l0.1-0.1
		c1.3-2.3,2.4-4.8,3-7.3c0.7-2.6,1-5.2,1-7.9C63,23.7,58.9,15.1,51.6,9.1z"/>
	<linearGradient id="SVGID_2_" gradientUnits="userSpaceOnUse" x1="7.4766" y1="56.0666" x2="54.6578" y2="13.3">
		<stop  offset="0" style="stop-color:#7c14ec"/>
		<stop  offset="1" style="stop-color:#df1ac5"/>
	</linearGradient>
	<path class="st2" d="M44.4,58.2c-3.7,1.8-7.8,2.7-11.9,2.7c-7.5,0-14.5-2.9-19.8-8.2c-5.3-5.3-8.2-12.3-8.2-19.8
		c0-2.7,0.4-5.5,1.2-8.1c0.7-2.4,1.8-4.7,3.1-6.8l16.4,0l5.2,8.6l2.1,3.5l2.1-3.5l5.2-8.6h8.8v24l2.6-3.1V15.5H39.3l-0.9,0h-0.1
		l-0.7,1.2l-5.2,8.5l-5.2-8.5l-0.6-1.2l-2.7,0l0,0l-16.5,0c-1.8,2.6-3.2,5.5-4.2,8.6C2.4,27,2,29.9,2,32.9c0,8.1,3.2,15.8,8.9,21.6
		c5.8,5.8,13.4,8.9,21.6,8.9c4.6,0,8.9-1,13-2.9c4-1.9,7.6-4.7,10.4-8.1h-3.4C50.1,54.8,47.4,56.8,44.4,58.2z"/>
</g>
<g>
	<linearGradient id="SVGID_3_" gradientUnits="userSpaceOnUse" x1="244.9533" y1="44.5011" x2="337.7618" y2="27.0118">
		<stop  offset="0" style="stop-color:#7c14ec"/>
		<stop  offset="1" style="stop-color:#df1ac5"/>
	</linearGradient>
	<polygon class="st3" points="243.8,43.7 243.8,44.2 264.5,44.2 264.5,40.9 245.8,40.9 	"/>
	<linearGradient id="SVGID_4_" gradientUnits="userSpaceOnUse" x1="242.4218" y1="31.0672" x2="335.2303" y2="13.5778">
		<stop  offset="0" style="stop-color:#7c14ec"/>
		<stop  offset="1" style="stop-color:#df1ac5"/>
	</linearGradient>
	<polygon class="st4" points="243.8,24.4 257.9,24.4 247.1,39.2 251.2,39.2 262.1,24.4 264.5,21 243.8,21 	"/>
	<linearGradient id="SVGID_5_" gradientUnits="userSpaceOnUse" x1="244.4393" y1="41.7733" x2="337.2478" y2="24.284">
		<stop  offset="0" style="stop-color:#7c14ec"/>
		<stop  offset="1" style="stop-color:#df1ac5"/>
	</linearGradient>
	<path class="st5" d="M288.6,22.7l-1-1.9l0,0l0,0l0,0l0,0l-1,1.9l-1.2,2.1l-10.7,19.3h4.4h0l3.6-6.6h9.6l3.6,6.6h0h4.4l-10.7-19.3
		L288.6,22.7z M284.6,34.2l3-5.4l3,5.4H284.6z"/>
	<linearGradient id="SVGID_6_" gradientUnits="userSpaceOnUse" x1="245.0312" y1="44.9145" x2="337.8397" y2="27.4251">
		<stop  offset="0" style="stop-color:#7c14ec"/>
		<stop  offset="1" style="stop-color:#df1ac5"/>
	</linearGradient>
	<path class="st6" d="M327.2,27.2c0-3.3-2.6-6-5.9-6.2l0,0h-12.8v23.2h3.4V33.4h9.7l0,0C324.7,33.1,327.2,30.5,327.2,27.2z M321,30
		h-9.1v-5.7h8.9c0,0,0,0,0,0c0.1,0,0.1,0,0.2,0c1.6,0,2.8,1.3,2.8,2.8S322.6,30,321,30z"/>
</g>
</svg>
