<?xml version="1.0" encoding="utf-8"?>
<svg viewBox="118.054 130.338 243 23.6" xmlns="http://www.w3.org/2000/svg">
  <g transform="matrix(1, 0, 0, 1, -110.039116, 46.234417)">
    <path class="st0" d="M 248.793 84.503 L 248.793 107.603 L 245.493 107.603 L 245.493 92.603 L 240.893 97.103 L 239.793 98.203 L 238.493 99.503 L 231.393 92.403 L 231.393 92.403 L 228.093 89.103 L 228.093 84.303 L 238.493 94.703 L 248.793 84.503 Z M 228.093 87.703 L 231.393 92.003 L 231.393 107.703 L 228.093 107.703 L 228.093 87.703 Z" style="fill: rgb(255, 255, 255);"/>
    <path class="st0" d="M 267.093 90.303 L 269.293 94.303 L 261.893 107.603 L 257.493 107.603 L 267.093 90.303 Z M 283.293 107.603 L 278.893 107.603 L 270.393 92.303 L 268.193 88.303 L 270.393 84.303 L 270.393 84.303 L 272.593 88.303 L 283.293 107.603 Z" style="fill: rgb(255, 255, 255);"/>
    <path class="st0" d="M 283.293 107.603 L 278.893 107.603 L 271.493 94.303 L 273.693 90.303 L 283.293 107.603 Z M 268.193 88.303 L 270.393 84.303 L 270.393 84.303 L 272.593 88.303 L 270.393 92.303 L 261.893 107.603 L 257.493 107.603 L 268.193 88.303 Z" style="fill: rgb(255, 255, 255);"/>
    <path class="st0" d="M 284.293 87.803 L 284.293 84.503 L 304.993 84.503 L 304.993 87.803 L 284.293 87.803 Z M 292.793 107.603 L 292.793 89.403 L 296.093 89.403 L 296.093 107.603 L 292.793 107.603 Z" style="fill: rgb(255, 255, 255);"/>
    <path class="st0" d="M 335.193 107.603 L 331.293 107.603 L 324.593 96.603 L 324.393 96.303 C 324.393 96.303 324.393 96.303 324.393 96.303 C 324.293 96.303 324.293 96.303 324.193 96.303 C 324.193 96.303 324.193 96.303 324.093 96.303 C 323.993 96.303 323.893 96.303 323.793 96.403 C 323.593 96.403 323.393 96.503 323.193 96.503 C 323.093 96.503 323.093 96.503 322.993 96.503 C 322.993 96.503 322.893 96.503 322.893 96.503 C 322.793 96.503 322.793 96.503 322.693 96.503 C 322.693 96.503 322.593 96.503 322.593 96.503 C 322.493 96.503 322.393 96.503 322.393 96.503 C 322.293 96.503 322.193 96.503 322.093 96.503 C 322.093 96.503 322.093 96.503 322.093 96.503 C 321.993 96.503 321.893 96.503 321.793 96.503 C 321.793 96.503 321.793 96.503 321.793 96.503 C 321.693 96.503 321.693 96.503 321.593 96.503 C 321.593 96.503 321.493 96.503 321.493 96.503 C 321.393 96.503 321.293 96.503 321.293 96.503 L 316.993 96.503 L 316.993 107.303 L 313.693 107.303 L 313.693 84.403 L 332.893 84.403 C 332.893 84.703 332.893 84.903 332.893 85.203 C 332.893 86.103 332.793 86.903 332.593 87.703 C 332.093 89.903 330.993 91.903 329.393 93.403 C 329.293 93.503 329.093 93.703 328.993 93.803 C 328.893 93.803 328.893 93.903 328.793 93.903 C 328.793 93.903 328.793 93.903 328.793 93.903 C 328.693 94.003 328.693 94.003 328.593 94.103 C 328.593 94.103 328.493 94.203 328.493 94.203 C 328.493 94.203 328.393 94.303 328.393 94.303 C 328.293 94.403 328.093 94.503 327.993 94.603 C 327.893 94.603 327.893 94.703 327.793 94.703 C 327.793 94.703 327.793 94.703 327.793 94.703 C 327.693 94.703 327.693 94.803 327.593 94.803 C 327.593 94.803 327.593 94.803 327.593 94.803 C 327.593 94.803 327.593 94.803 327.493 94.803 L 327.893 95.503 L 335.193 107.603 Z M 327.093 91.103 C 328.093 90.203 328.793 89.003 329.193 87.703 L 316.993 87.703 L 316.993 93.403 L 321.293 93.403 C 322.393 93.403 323.593 93.203 324.593 92.703 C 325.493 92.403 326.393 91.803 327.093 91.103 Z" style="fill: rgb(255, 255, 255);"/>
    <path class="st0" d="M 344.293 107.603 L 344.293 84.403 L 347.593 84.403 L 347.593 107.703 L 344.293 107.703 Z M 344.293 84.403 L 344.293 107.703 L 347.593 107.703 L 347.593 84.403 L 344.293 84.403 Z M 347.493 84.503 L 344.393 84.503 L 344.393 107.503 L 347.493 107.503 L 347.493 84.503 Z" style="fill: rgb(255, 255, 255);"/>
    <path class="st0" d="M 364.493 97.003 L 366.593 99.803 L 360.893 107.603 L 356.693 107.603 L 364.493 97.003 Z M 378.493 107.603 L 374.293 107.603 L 367.493 98.403 L 367.493 98.403 L 365.393 95.603 L 365.393 95.603 L 365.093 95.203 L 357.193 84.403 L 361.393 84.403 L 367.293 92.403 L 367.593 92.803 L 367.893 92.403 L 373.793 84.403 L 377.993 84.403 L 370.093 95.203 L 369.793 95.603 L 378.493 107.603 Z" style="fill: rgb(255, 255, 255);"/>
    <rect x="264.493" y="97.703" class="st0" width="11.1" height="3.3" style="fill: rgb(255, 255, 255);"/>
    <g transform="matrix(1, 0, 0, 1, 143.893188, 63.303345)">
      <linearGradient id="SVGID_3_" gradientUnits="userSpaceOnUse" x1="244.9533" y1="44.5011" x2="337.7618" y2="27.0118">
        <stop offset="0" style="stop-color:#7c14ec"/>
        <stop offset="1" style="stop-color:#df1ac5"/>
      </linearGradient>
      <polygon class="st3" points="243.8,43.7 243.8,44.2 264.5,44.2 264.5,40.9 245.8,40.9 &#9;" style="fill: url(#SVGID_3_);"/>
      <linearGradient id="SVGID_4_" gradientUnits="userSpaceOnUse" x1="242.4218" y1="31.0672" x2="335.2303" y2="13.5778">
        <stop offset="0" style="stop-color:#7c14ec"/>
        <stop offset="1" style="stop-color:#df1ac5"/>
      </linearGradient>
      <polygon class="st4" points="243.8,24.4 257.9,24.4 247.1,39.2 251.2,39.2 262.1,24.4 264.5,21 243.8,21 &#9;" style="fill: url(#SVGID_4_);"/>
      <linearGradient id="gradient-1" gradientUnits="userSpaceOnUse" x1="244.4393" y1="41.7733" x2="337.2478" y2="24.284">
        <stop offset="0" style="stop-color:#7c14ec"/>
        <stop offset="1" style="stop-color:#df1ac5"/>
      </linearGradient>
      <path class="st5" d="M288.6,22.7l-1-1.9l0,0l0,0l0,0l0,0l-1,1.9l-1.2,2.1l-10.7,19.3h4.4h0l3.6-6.6h9.6l3.6,6.6h0h4.4l-10.7-19.3 L288.6,22.7z M284.6,34.2l3-5.4l3,5.4H284.6z" style="fill: url(#gradient-1);"/>
      <linearGradient id="gradient-2" gradientUnits="userSpaceOnUse" x1="245.0312" y1="44.9145" x2="337.8397" y2="27.4251">
        <stop offset="0" style="stop-color:#7c14ec"/>
        <stop offset="1" style="stop-color:#df1ac5"/>
      </linearGradient>
      <path class="st6" d="M327.2,27.2c0-3.3-2.6-6-5.9-6.2l0,0h-12.8v23.2h3.4V33.4h9.7l0,0C324.7,33.1,327.2,30.5,327.2,27.2z M321,30 h-9.1v-5.7h8.9c0,0,0,0,0,0c0.1,0,0.1,0,0.2,0c1.6,0,2.8,1.3,2.8,2.8S322.6,30,321,30z" style="fill: url(#gradient-2);"/>
    </g>
  </g>
</svg>