<svg xmlns="http://www.w3.org/2000/svg" version="1.1" xmlns:xlink="http://www.w3.org/1999/xlink" xmlns:svgjs="http://svgjs.dev/svgjs" width="1500" height="935" viewBox="0 0 1500 935">
  <g transform="matrix(1,0,0,1,-0.9090909090909918,0.3785425101214628)">
    <svg viewBox="0 0 396 247" data-background-color="#000000" preserveAspectRatio="xMidYMid meet" height="935" width="1500" xmlns="http://www.w3.org/2000/svg" xmlns:xlink="http://www.w3.org/1999/xlink">
      <g id="tight-bounds" transform="matrix(1,0,0,1,0.2400000000000091,-0.09999999999999432)">
        <svg viewBox="0 0 395.52 247.2" height="247.2" width="395.52">
          <g>
            <svg></svg>
          </g>
          <g>
            <svg viewBox="0 0 395.52 247.2" height="247.2" width="395.52">
              <g transform="matrix(1,0,0,1,126.05389613848203,47.215199999999996)">
                <svg viewBox="0 0 143.41220772303592 152.7696" height="152.7696" width="143.41220772303592">
                  <g>
                    <svg viewBox="0 0 143.41220772303592 152.7696" height="152.7696" width="143.41220772303592">
                      <g>
                        <svg viewBox="0 0 143.41220772303592 152.7696" height="152.7696" width="143.41220772303592">
                          <g>
                            <svg viewBox="0 0 143.41220772303592 152.7696" height="152.7696" width="143.41220772303592">
                              <g id="textblocktransform">
                                <svg viewBox="0 0 143.41220772303592 152.7696" height="152.7696" width="143.41220772303592" id="textblock">
                                  <g>
                                    <svg viewBox="0 0 143.41220772303592 152.7696" height="152.7696" width="143.41220772303592">
                                      <g transform="matrix(1,0,0,1,0,0)">
                                        <svg width="143.41220772303592" viewBox="-0.8 -37.15 35.25 37.55" height="152.7696" data-palette-color="#7c14ec">
                                          <path d="M-0.8-34.65L-0.8-37.15 12.5-37.15 12.5-34.65 8.05-34.05 16.3-10.6 18.15-4.5 19.8-10.7 27.25-34.05 23.3-34.65 23.3-37.15 34.45-37.15 34.45-34.65 31.25-34.05 19.4 0.4 15.05 0.4 2.25-34.05-0.8-34.65Z" opacity="1" transform="matrix(1,0,0,1,0,0)" fill="#7c14ec" class="wordmark-text-0" data-fill-palette-color="primary" id="text-0"></path>
                                        </svg>
                                      </g>
                                    </svg>
                                  </g>
                                </svg>
                              </g>
                            </svg>
                          </g>
                        </svg>
                      </g>
                    </svg>
                  </g>
                </svg>
              </g>
              <path d="M308.355 41.215L308.355 0 61.155 0 61.155 247.2 308.355 247.2 308.355 205.985 294.578 205.985 294.578 233.423 74.932 233.423 74.932 13.777 294.578 13.777 294.578 41.215Z" fill="#7c14ec" stroke="transparent" data-fill-palette-color="primary"></path>
            </svg>
          </g>
          <defs></defs>
        </svg>
        <rect width="395.52" height="247.2" fill="none" stroke="none" visibility="hidden"></rect>
      </g>
    </svg>
  </g>
</svg>