<?xml version="1.0" standalone="no"?>
<!DOCTYPE svg PUBLIC "-//W3C//DTD SVG 20010904//EN"
 "http://www.w3.org/TR/2001/REC-SVG-20010904/DTD/svg10.dtd">
<svg version="1.0" xmlns="http://www.w3.org/2000/svg"
 width="1500.000000pt" height="1500.000000pt" viewBox="0 0 1500.000000 1500.000000"
 preserveAspectRatio="xMidYMid meet">
<metadata>
Created by potrace 1.14, written by Peter Selinger 2001-2017
</metadata>
<g transform="translate(0.000000,1500.000000) scale(0.100000,-0.100000)"
fill="#000000" stroke="none">
<path d="M2319 12143 c-2 -16 -2 -50 1 -78 3 -27 2 -67 -1 -87 -4 -21 -2 -38
3 -38 5 0 7 -4 4 -9 -5 -7 -6 -61 -5 -171 0 -8 -1 -67 -2 -130 0 -63 0 -119 1
-125 1 -5 1 -14 0 -20 -1 -5 -1 -39 0 -75 1 -36 1 -72 1 -80 0 -8 0 -71 0
-140 0 -161 -1 -191 -7 -202 -3 -4 0 -8 6 -8 6 0 9 -4 6 -9 -5 -7 -6 -61 -5
-171 0 -8 -1 -67 -2 -130 0 -63 0 -119 1 -125 1 -5 1 -14 0 -20 -1 -5 -1 -39
0 -75 1 -36 1 -72 1 -80 0 -8 0 -71 0 -140 0 -161 -1 -191 -7 -202 -3 -4 0 -8
6 -8 6 0 9 -4 6 -9 -5 -7 -6 -61 -5 -171 0 -8 -1 -67 -2 -130 0 -63 0 -119 1
-125 1 -5 1 -14 0 -20 -1 -5 -1 -39 0 -75 1 -36 1 -72 1 -80 0 -8 0 -71 0
-140 0 -161 -1 -191 -7 -202 -3 -4 0 -8 6 -8 6 0 9 -4 6 -9 -5 -7 -6 -61 -5
-171 0 -8 -1 -67 -2 -130 0 -63 0 -119 1 -125 1 -5 1 -14 0 -20 -1 -5 -1 -39
0 -75 1 -36 1 -72 1 -80 0 -8 0 -71 0 -140 0 -161 -1 -191 -7 -202 -3 -4 0 -8
6 -8 6 0 9 -4 6 -9 -5 -7 -6 -61 -5 -171 0 -8 -1 -67 -2 -130 0 -63 0 -119 1
-125 1 -5 1 -14 0 -20 -1 -5 -1 -39 0 -75 1 -36 1 -72 1 -80 0 -8 0 -58 0
-110 0 -52 0 -101 0 -107 -3 -33 -3 -53 -2 -118 1 -38 0 -94 -1 -123 -2 -28 1
-52 5 -52 5 0 6 -4 3 -9 -3 -5 -6 -42 -6 -82 0 -41 1 -83 1 -94 -1 -11 0 -49
0 -85 1 -36 0 -71 0 -77 -3 -29 -3 -52 -2 -118 1 -38 0 -94 -1 -123 -2 -28 1
-52 5 -52 5 0 6 -4 3 -9 -3 -5 -6 -42 -6 -82 0 -41 1 -83 1 -94 -1 -11 0 -49
0 -85 1 -36 0 -71 0 -77 -3 -29 -3 -52 -2 -118 1 -38 0 -94 -1 -123 -2 -28 1
-52 5 -52 5 0 6 -4 3 -9 -3 -5 -6 -42 -6 -82 0 -41 1 -83 1 -94 -1 -11 0 -49
0 -85 1 -36 0 -71 0 -77 -3 -29 -3 -52 -2 -118 1 -38 0 -94 -1 -123 -2 -28 1
-52 5 -52 5 0 6 -4 3 -9 -3 -5 -6 -42 -6 -82 0 -41 1 -83 1 -94 0 -23 0 -243
0 -265 1 -276 0 -330 -7 -342 -3 -4 0 -8 6 -8 6 0 9 -4 6 -9 -5 -7 -6 -61 -5
-171 0 -8 -1 -67 -2 -130 0 -63 0 -119 1 -125 1 -5 1 -14 0 -20 -1 -5 -1 -39
0 -75 1 -36 1 -72 1 -80 0 -8 0 -71 0 -140 0 -161 -1 -191 -7 -202 -3 -4 0 -8
6 -8 6 0 9 -4 6 -9 -5 -7 -6 -61 -5 -171 0 -21 0 -250 -1 -277 l0 -23 4678 0
4678 0 0 775 0 775 -35 1 c-36 1 -428 0 -466 -1 -20 0 -20 -7 -20 -515 1 -456
-1 -515 -15 -519 -8 -2 -1878 -3 -4155 -2 l-4140 1 -1 4157 -2 4158 4157 -3
4156 -2 0 -515 1 -515 260 -3 260 -2 0 780 0 780 -4677 0 -4677 0 -3 -27z"/>
<path d="M4779 10370 c-6 -91 -2 -363 6 -369 8 -6 125 -31 263 -56 13 -2 31
-6 40 -9 9 -3 33 -7 52 -11 108 -17 108 -17 135 -95 1 -3 4 -12 7 -20 4 -8 25
-65 47 -127 23 -61 48 -127 56 -147 9 -20 12 -36 9 -36 -4 0 0 -8 9 -18 10
-10 15 -21 12 -24 -3 -3 6 -32 19 -64 32 -76 226 -598 226 -608 0 -5 7 -22 15
-39 14 -32 65 -163 69 -182 2 -5 9 -23 15 -40 7 -16 14 -34 15 -40 1 -5 8 -20
14 -32 7 -13 10 -23 6 -23 -3 0 -1 -6 5 -13 6 -8 12 -22 14 -33 5 -24 16 -54
28 -76 5 -10 9 -25 9 -33 0 -8 5 -15 12 -15 6 0 9 -3 5 -6 -5 -6 8 -49 33
-109 5 -11 19 -49 31 -85 13 -36 25 -67 28 -70 3 -3 7 -12 9 -20 3 -16 59
-171 73 -205 5 -11 18 -47 30 -80 12 -33 26 -71 32 -85 6 -14 11 -29 13 -35 1
-5 28 -77 59 -160 31 -82 58 -154 59 -160 1 -5 7 -20 14 -32 7 -12 12 -26 12
-32 0 -5 5 -22 12 -38 6 -15 12 -31 12 -35 1 -3 4 -10 9 -14 4 -4 7 -14 7 -22
0 -8 6 -28 14 -45 14 -33 32 -79 90 -237 19 -52 40 -108 47 -125 7 -16 13 -37
15 -45 2 -8 9 -30 17 -50 19 -44 39 -99 66 -172 47 -129 65 -173 73 -183 4 -5
8 -19 8 -30 0 -12 3 -25 7 -29 4 -3 8 -12 9 -19 2 -7 26 -72 53 -145 28 -72
51 -139 51 -147 0 -8 5 -15 10 -15 6 0 10 -9 10 -20 0 -11 4 -28 9 -38 12 -22
49 -123 53 -142 2 -8 6 -17 9 -20 3 -3 18 -39 32 -81 14 -42 38 -107 52 -145
15 -38 36 -94 47 -124 11 -30 24 -64 28 -75 5 -11 25 -65 45 -120 20 -55 42
-116 50 -135 30 -76 96 -256 99 -267 1 -7 5 -16 9 -19 4 -4 7 -16 7 -27 0 -15
5 -18 25 -15 14 3 25 1 25 -4 0 -5 4 -7 9 -4 5 3 53 6 107 5 55 0 110 1 124 1
14 1 30 2 35 1 39 -1 252 -2 260 0 6 1 29 1 51 0 40 -1 42 1 58 42 8 23 19 57
22 74 4 18 11 33 17 33 6 0 8 3 4 6 -5 5 12 65 32 109 10 21 20 64 20 79 -1 5
3 12 8 15 7 5 16 29 38 101 1 3 4 12 8 20 3 8 22 65 42 125 20 61 39 117 42
125 20 54 74 208 78 220 2 8 36 107 75 220 39 113 73 212 75 220 2 8 12 39 24
68 11 28 18 52 15 52 -4 0 -2 6 3 13 9 10 40 95 49 132 2 6 22 62 44 125 23
63 42 121 42 128 1 6 5 12 10 12 4 0 7 3 6 8 -3 10 13 73 23 92 4 8 22 58 39
110 18 52 36 104 40 115 5 11 32 90 61 175 28 85 69 203 90 263 20 59 35 107
32 107 -3 0 2 11 11 25 9 14 14 25 10 25 -4 0 -2 6 3 13 8 10 17 33 28 77 4
18 29 87 34 95 3 6 6 15 7 20 1 6 32 96 69 200 36 105 68 200 70 211 1 12 7
30 13 40 5 11 29 75 52 144 24 69 47 136 53 150 5 14 11 32 12 40 2 8 33 101
70 205 36 105 85 244 107 310 22 66 45 126 51 133 5 6 7 12 4 12 -5 0 12 58
30 100 3 8 7 21 9 28 1 8 6 21 10 30 4 9 8 23 10 30 1 8 6 21 10 30 4 9 8 20
9 25 2 4 3 8 4 10 4 8 105 300 116 337 7 25 25 75 39 113 14 37 22 67 19 67
-3 0 0 6 6 13 6 8 8 16 5 20 -7 7 17 14 111 31 11 2 70 13 130 24 61 12 124
24 140 27 17 3 44 8 60 11 17 4 36 7 43 7 16 0 14 -16 16 200 2 183 2 187 -18
188 -111 4 -1688 1 -1692 -4 -5 -5 -8 -239 -5 -360 1 -19 7 -23 34 -25 18 -1
44 -5 57 -7 14 -3 41 -8 60 -11 77 -11 107 -15 139 -20 19 -2 48 -7 65 -10 72
-13 93 -16 128 -17 21 -1 38 -5 38 -9 0 -3 14 -5 30 -4 53 4 56 -5 31 -86 -12
-40 -24 -80 -26 -88 -2 -8 -15 -48 -30 -88 -14 -40 -23 -77 -20 -83 4 -5 2 -9
-2 -9 -5 0 -17 -28 -26 -62 -10 -35 -22 -72 -27 -83 -5 -11 -25 -74 -45 -140
-20 -66 -42 -133 -48 -150 -6 -16 -12 -34 -13 -40 -1 -8 -39 -130 -60 -195 -3
-8 -5 -15 -4 -15 1 0 -5 -18 -13 -40 -18 -47 -147 -449 -147 -458 0 -3 -5 -18
-12 -34 -13 -32 -16 -41 -22 -68 -2 -11 -5 -22 -7 -25 -1 -3 -3 -9 -4 -15 -1
-5 -5 -19 -9 -30 -17 -43 -19 -50 -21 -60 -2 -5 -19 -61 -39 -122 -21 -62 -37
-115 -36 -118 0 -3 -6 -21 -14 -40 -9 -20 -15 -39 -16 -43 0 -4 -16 -56 -36
-117 -20 -60 -38 -117 -39 -125 -2 -8 -4 -16 -5 -17 -2 -2 -3 -6 -4 -10 -1 -5
-26 -82 -56 -173 -29 -91 -55 -171 -56 -178 -3 -14 -30 -98 -48 -147 -6 -16
-11 -34 -12 -40 -1 -5 -9 -30 -17 -55 -19 -55 -121 -373 -122 -380 -3 -12 -68
-219 -81 -255 -7 -22 -25 -85 -39 -140 -14 -55 -28 -107 -30 -115 -51 -196
-67 -258 -72 -270 -3 -8 -7 -22 -8 -30 -1 -8 -8 -35 -15 -60 -7 -25 -13 -49
-14 -55 -1 -5 -4 -14 -7 -20 -4 -5 -10 -28 -14 -50 -9 -45 -12 -54 -15 -57 -1
-2 -3 -10 -5 -18 -2 -8 -6 -25 -9 -37 -3 -13 -9 -33 -12 -45 -3 -13 -6 -28 -8
-35 -7 -35 -18 -16 -46 78 -17 57 -34 111 -37 119 -3 8 -7 20 -8 25 -1 6 -3
12 -4 15 -2 3 -4 12 -6 20 -10 44 -85 281 -94 298 -6 11 -8 22 -6 24 3 3 -2
22 -11 44 -9 21 -16 40 -15 42 7 10 -104 340 -289 862 -28 80 -58 165 -66 190
-8 25 -19 53 -24 62 -6 10 -10 27 -10 38 0 11 -5 20 -12 20 -6 0 -9 3 -6 6 3
3 -10 49 -29 102 -19 53 -35 103 -36 110 0 6 -3 12 -7 12 -3 0 -12 23 -19 51
-8 28 -20 63 -27 78 -8 14 -14 33 -14 41 0 8 -7 28 -15 44 -8 15 -15 35 -15
42 0 8 -4 22 -10 32 -5 9 -19 44 -29 77 -11 33 -36 105 -56 160 -20 55 -38
107 -40 115 -2 8 -4 16 -5 18 -2 1 -3 6 -4 11 0 5 -4 13 -8 17 -5 4 -8 16 -8
26 0 10 -4 18 -8 18 -4 0 -8 8 -9 18 0 14 -48 156 -70 212 -4 8 -7 18 -8 23
-2 4 -4 9 -5 12 -1 3 -3 8 -5 13 -1 4 -4 14 -8 22 -3 8 -38 107 -77 220 -39
113 -74 212 -77 220 -4 8 -7 18 -8 23 -2 4 -4 9 -5 12 -1 3 -3 9 -4 14 0 5 -4
13 -8 17 -5 4 -8 18 -8 30 0 13 -4 26 -10 29 -5 3 -10 15 -10 26 0 10 -5 19
-11 19 -5 0 -8 4 -5 9 5 8 -34 126 -55 164 -5 10 -7 22 -4 27 4 6 2 10 -3 10
-5 0 -12 12 -15 28 -2 15 -24 79 -47 142 -23 63 -43 120 -44 125 -1 6 -4 15
-7 20 -4 6 -12 28 -18 50 -7 22 -16 49 -21 60 -25 58 -58 165 -52 169 4 2 25
5 47 7 22 1 44 5 49 8 6 2 37 6 70 9 34 2 63 7 66 10 3 4 25 8 50 8 25 1 63 5
85 8 50 9 57 10 188 27 78 9 111 17 116 28 6 12 8 348 2 371 0 3 -460 5 -1021
5 -900 0 -1020 -2 -1021 -15z"/>
</g>
</svg>
