<?xml version="1.0" encoding="utf-8"?>
<!-- Generator: Adobe Illustrator 24.1.1, SVG Export Plug-In . SVG Version: 6.00 Build 0)  -->
<svg version="1.1" id="Layer_1" xmlns="http://www.w3.org/2000/svg" xmlns:xlink="http://www.w3.org/1999/xlink" x="0px" y="0px" viewBox="0 0 50 50" style="enable-background:new 0 0 50 50;" xml:space="preserve">
  <style type="text/css">
    .st0 {
      fill: #FFFFFF4D;
    }

    .st1 {
      fill: url(#SVGID_1_);
    }

    .st2 {
      fill: #000000;
    }

    .st3 {
      fill: url(#SVGID_2_);
      stroke: url(#SVGID_3_);
      stroke-width: 0.25;
      stroke-miterlimit: 10;
    }

    .st4 {
      fill: url(#SVGID_4_);
      stroke: url(#SVGID_5_);
      stroke-width: 0.25;
      stroke-miterlimit: 10;
    }

    .st5 {
      fill: url(#SVGID_6_);
      stroke: url(#SVGID_7_);
      stroke-width: 0.25;
      stroke-miterlimit: 10;
    }

    .st6 {
      fill: url(#SVGID_8_);
      stroke: url(#SVGID_9_);
      stroke-width: 0.25;
      stroke-miterlimit: 10;
    }

    .st-outlined {
        opacity: 0.5;
        stroke: #fff;
        stroke-width: 0.1;
        stroke-miterlimit: 10;
    }
  </style>
  <g class="st-outlined">
    <path d="M 25 49 c -0.5 0 -1 -0.1 -1.4 -0.4 l -5.1 -3 c 0.4 -0.2 0.9 -0.4 1.3 -0.6 l 4.5 2.6 c 0.3 0.1 0.5 0.2 0.8 0.2 s 0.6 -0.1 0.8 -0.2 L 44.2 37 c 0.5 -0.3 0.8 -0.8 0.8 -1.4 V 14.4 c 0 -0.6 -0.3 -1.1 -0.8 -1.4 L 25.8 2.4 c -0.2 -0.1 -0.5 -0.2 -0.8 -0.2 s -0.6 0.1 -0.8 0.2 L 5.9 13 C 5.4 13.3 5 13.8 5 14.4 v 21.2 c 0 0.6 0.3 1.1 0.8 1.4 l 5 2.9 c 0.9 0.4 1.7 0.7 2.5 0.7 c 2.2 0 3.5 -1.7 3.5 -3.4 V 16.7 h 1.3 v 20.4 c 0 2.1 -0.8 4.7 -4.4 4.7 c -1 0 -1.7 0 -3.8 -1 L 5.2 38 c -0.9 -0.5 -1.4 -1.4 -1.4 -2.4 V 14.4 c 0 -1 0.5 -1.9 1.4 -2.4 L 23.6 1.4 C 24 1.1 24.5 1 25 1 s 1 0.1 1.4 0.4 L 44.8 12 c 0.9 0.5 1.4 1.4 1.4 2.4 v 21.2 c 0 1 -0.5 1.9 -1.4 2.4 L 26.4 48.6 C 26 48.9 25.5 49 25 49 L 25 49 z" />
    <!-- <path opacity="0.2" d="M 25 49 c -0.5 0 -1 -0.1 -1.4 -0.4 l -5.1 -3 c 0.4 -0.2 0.9 -0.4 1.3 -0.6 l 4.5 2.6 c 0.3 0.1 0.5 0.2 0.8 0.2 s 0.6 -0.1 0.8 -0.2 L 44.2 37 c 0.5 -0.3 0.8 -0.8 0.8 -1.4 V 14.4 c 0 -0.6 -0.3 -1.1 -0.8 -1.4 L 25.8 2.4 c -0.2 -0.1 -0.5 -0.2 -0.8 -0.2 s -0.6 0.1 -0.8 0.2 L 5.9 13 C 5.4 13.3 5 13.8 5 14.4 v 21.2 c 0 0.6 0.3 1.1 0.8 1.4 l 5 2.9 c 0.9 0.4 1.7 0.7 2.5 0.7 c 2.2 0 3.5 -1.7 3.5 -3.4 V 16.7 h 1.3 v 20.4 c 0 2.1 -0.8 4.7 -4.4 4.7 c -1 0 -1.7 0 -3.8 -1 L 5.2 38 c -0.9 -0.5 -1.4 -1.4 -1.4 -2.4 V 14.4 c 0 -1 0.5 -1.9 1.4 -2.4 L 23.6 1.4 C 24 1.1 24.5 1 25 1 s 1 0.1 1.4 0.4 L 44.8 12 c 0.9 0.5 1.4 1.4 1.4 2.4 v 21.2 c 0 1 -0.5 1.9 -1.4 2.4 L 26.4 48.6 C 26 48.9 25.5 49 25 49 L 25 49 z" /> -->
  </g>
  <g>
    <linearGradient id="SVGID_1_" gradientUnits="userSpaceOnUse" x1="27.5373" y1="34.8169" x2="41.6031" y2="14.729">
      <stop offset="0" style="stop-color:#7c14ec" />
      <stop offset="1" style="stop-color:#df1ac5" />
    </linearGradient>
    <path class="st1" d="M36.2,38.6h-3.3v-3.5c-3.5-3.2-5.3-6.8-5.3-10.8c0-8.6,6.3-13.9,6.5-14.2l0.4-0.3l0.4,0.3
		c0.3,0.2,6.5,5.5,6.5,14.2c0,4-1.8,7.6-5.3,10.8V38.6z M34.1,37.4H35v-2.8l0.2-0.2c3.4-3,5.1-6.4,5.1-10.1c0-6.9-4.4-11.6-5.7-12.9
		c-1.3,1.3-5.7,6-5.7,12.9c0,3.7,1.7,7.1,5.1,10.1l0.2,0.2V37.4z" />
  </g>
  <rect x="13.5" y="9.4" class="st2" width="10.8" height="22.9" />
  <g>
    <linearGradient id="SVGID_2_" gradientUnits="userSpaceOnUse" x1="15.9831" y1="23.0401" x2="17.8697" y2="20.3458">
      <stop offset="0" style="stop-color:#7c14ec" />
      <stop offset="1" style="stop-color:#df1ac5" />
    </linearGradient>
    <linearGradient id="SVGID_3_" gradientUnits="userSpaceOnUse" x1="15.9114" y1="23.1425" x2="17.9414" y2="20.2434">
      <stop offset="0" style="stop-color:#7c14ec" />
      <stop offset="1" style="stop-color:#df1ac5" />
    </linearGradient>
    <circle class="st3" cx="16.9" cy="21.7" r="1.6" />
    <g>
      <linearGradient id="SVGID_4_" gradientUnits="userSpaceOnUse" x1="13.404" y1="26.716" x2="20.416" y2="16.7017">
        <stop offset="0" style="stop-color:#7c14ec" />
        <stop offset="1" style="stop-color:#df1ac5" />
      </linearGradient>
      <linearGradient id="SVGID_5_" gradientUnits="userSpaceOnUse" x1="13.3323" y1="26.8184" x2="20.4877" y2="16.5993">
        <stop offset="0" style="stop-color:#7c14ec" />
        <stop offset="1" style="stop-color:#df1ac5" />
      </linearGradient>
      <path class="st4" d="M16.9,25.5c-2.3,0-4.3-0.3-5.8-0.8c-1-0.3-1.8-0.8-2.4-1.3c-0.6-0.5-1-1.1-1-1.7c0-1.1,1.2-2.2,3.2-2.8
			c1.6-0.6,3.8-0.9,6-0.9c2.2,0,4.3,0.3,5.9,0.9c1,0.3,1.8,0.8,2.3,1.2c0.6,0.5,0.9,1.1,0.9,1.6c0,1.1-1.3,2.3-3.5,3
			C21.1,25.2,19.1,25.5,16.9,25.5z M16.9,18.7c-2.1,0-4.2,0.3-5.7,0.8c-1.8,0.6-2.7,1.5-2.7,2.1c0,0.6,0.9,1.6,2.8,2.2
			c1.4,0.5,3.4,0.7,5.6,0.7c2.1,0,4-0.3,5.5-0.7c2-0.7,2.9-1.6,2.9-2.2c0-0.3-0.2-0.7-0.7-1c-0.5-0.4-1.2-0.8-2.1-1.1
			C21.1,19,19,18.7,16.9,18.7z" />
    </g>
    <g>
      <linearGradient id="SVGID_6_" gradientUnits="userSpaceOnUse" x1="11.6725" y1="29.228" x2="22.1938" y2="14.202">
        <stop offset="0" style="stop-color:#7c14ec" />
        <stop offset="1" style="stop-color:#df1ac5" />
      </linearGradient>
      <linearGradient id="SVGID_7_" gradientUnits="userSpaceOnUse" x1="11.6008" y1="29.3304" x2="22.2655" y2="14.0996">
        <stop offset="0" style="stop-color:#7c14ec" />
        <stop offset="1" style="stop-color:#df1ac5" />
      </linearGradient>
      <path class="st5" d="M13.2,29.9c-0.3,0-0.6-0.1-0.9-0.2c-0.9-0.5-1.3-2.1-0.9-4.2c0.3-1.7,1.1-3.7,2.2-5.6
			c1.1-1.9,2.4-3.6,3.7-4.7c0.8-0.7,1.5-1.1,2.2-1.4c0.8-0.3,1.4-0.3,1.9,0c1,0.6,1.3,2.3,0.8,4.5c-0.3,1.6-1.1,3.5-2.2,5.3
			c-1.2,2-2.4,3.6-3.6,4.7c-0.8,0.7-1.6,1.2-2.3,1.4C13.9,29.8,13.5,29.9,13.2,29.9z M14,20l0.3,0.2c-1.1,1.8-1.8,3.8-2.1,5.4
			c-0.4,1.9,0,3.1,0.5,3.4c0.1,0.1,0.3,0.1,0.5,0.1c0.7,0,1.7-0.4,2.9-1.4c1.1-1,2.3-2.5,3.4-4.5c1-1.8,1.8-3.6,2.1-5.1
			c0.4-2.1,0.1-3.4-0.5-3.7c-0.3-0.2-0.7-0.1-1.2,0.1c-0.6,0.2-1.3,0.7-2,1.3c-1.2,1.1-2.5,2.7-3.6,4.5L14,20z" />
    </g>
    <g>
      <linearGradient id="SVGID_8_" gradientUnits="userSpaceOnUse" x1="13.9489" y1="25.9512" x2="19.8885" y2="17.4686">
        <stop offset="0" style="stop-color:#7c14ec" />
        <stop offset="1" style="stop-color:#df1ac5" />
      </linearGradient>
      <linearGradient id="SVGID_9_" gradientUnits="userSpaceOnUse" x1="13.8772" y1="26.0536" x2="19.9602" y2="17.3662">
        <stop offset="0" style="stop-color:#7c14ec" />
        <stop offset="1" style="stop-color:#df1ac5" />
      </linearGradient>
      <path class="st6" d="M20.7,29.9c-0.9,0-2-0.5-3.2-1.6c-1.3-1.1-2.7-2.8-3.8-4.8l0,0c-1.1-1.9-1.9-3.9-2.2-5.6
			c-0.2-1-0.2-1.9-0.1-2.6c0.1-0.8,0.5-1.4,0.9-1.6c1-0.6,2.6,0,4.3,1.5c1.2,1.1,2.5,2.7,3.5,4.6c1.2,2,1.9,3.9,2.2,5.4
			c0.2,1,0.2,2,0.1,2.7c-0.2,0.8-0.5,1.4-1,1.7C21.3,29.8,21,29.9,20.7,29.9z M14.4,23.2c1.1,1.8,2.4,3.5,3.6,4.6
			c1.5,1.3,2.7,1.5,3.2,1.3c0.5-0.3,0.9-1.6,0.5-3.6c-0.3-1.5-1-3.3-2.2-5.2c-1-1.8-2.2-3.4-3.4-4.4c-1.6-1.4-2.9-1.7-3.4-1.4
			c-0.3,0.2-0.5,0.5-0.6,1.1c-0.1,0.6-0.1,1.4,0.1,2.3C12.5,19.5,13.3,21.4,14.4,23.2L14.4,23.2z" />
    </g>
  </g>
</svg>