<svg xmlns="http://www.w3.org/2000/svg" xmlns:xlink="http://www.w3.org/1999/xlink" version="1.1" id="Layer_1" x="0px" y="0px" viewBox="0 0 50 50" style="enable-background:new 0 0 50 50;" xml:space="preserve" class="svg replaced-svg">
  <style type="text/css">
    .st-0a2420 {
      fill: #A7ADBA;
    }

    .st-1a2420 {
      fill: url(#SVGID_1_);
    }

    .st-outlined {
        opacity: 0.6;
        stroke: #fff;
        stroke-width: 0.2;
        stroke-miterlimit: 10;
    }
  </style>
  <g class="st-outlined">
    <path d="M12.1,46.4c-0.4,0-0.7-0.3-0.7-0.7v-4.7c0-4.8,3.7-8.9,8.5-9.3c0.1,0,0.2,0,0.2,0c0,0,0.1,0,0.1,0h0.6l-0.4-0.4  c-1.2-1.2-1.9-2.8-1.9-4.5v-5.1c0-2.8,2.2-5,5-5h7c0.4,0,0.7,0.3,0.7,0.7v9.4c0,1.7-0.7,3.3-1.9,4.5L29,31.7h0.6c0.1,0,0.2,0,0.2,0  c0.1,0,0.1,0,0.2,0c4.8,0.4,8.6,4.5,8.6,9.3v4.7c0,0.4-0.3,0.7-0.7,0.7H12.1z M12.8,45.1h24.4v-4c0-4-3-7.4-7-7.9l-0.1,0l-4.6,4.6  c-0.1,0.1-0.3,0.2-0.5,0.2s-0.4-0.1-0.5-0.2L20,33.2l-0.1,0c-3.7,0.4-6.5,3.3-7,7l0,0.3h8c0.4,0,0.7,0.3,0.7,0.7  c0,0.4-0.3,0.7-0.7,0.7h-8V45.1z M25,36.2l3.1-3.1h-6.3L25,36.2z M20,26.8c0,2.7,2.2,5,5,5c2.7,0,5-2.2,5-5v-2.9l-0.4,0.3  c-0.7,0.4-1.4,0.7-2.2,0.7H20V26.8z M23.6,18c-2,0-3.6,1.6-3.6,3.6v1.7h7.4c1.4,0,2.6-1.2,2.6-2.6V18H23.6z"></path>
  </g>
  <g class="st-outlined">
    <path d="M25,41.8c-0.2,0-0.4-0.1-0.5-0.2s-0.2-0.3-0.2-0.5c0-0.2,0.1-0.4,0.2-0.5s0.3-0.2,0.5-0.2s0.4,0.1,0.5,0.2  s0.2,0.3,0.2,0.5c0,0.2-0.1,0.4-0.2,0.5C25.4,41.7,25.2,41.8,25,41.8z"></path>
  </g>
  <g class="st-outlined">
    <path d="M36.3,30.4c-0.2,0-0.4-0.1-0.5-0.2c-0.1-0.1-0.2-0.3-0.2-0.5s0.1-0.4,0.2-0.5c0.1-0.1,0.3-0.2,0.5-0.2  c0.2,0,0.4,0.1,0.5,0.2c0.1,0.1,0.2,0.3,0.2,0.5s-0.1,0.4-0.2,0.5C36.6,30.3,36.5,30.4,36.3,30.4z"></path>
  </g>
  <linearGradient id="SVGID_1_" gradientUnits="userSpaceOnUse" x1="13.7822" y1="40.3887" x2="37.5723" y2="6.4129">
    <stop offset="0" style="stop-color:#7c14ec"></stop>
    <stop offset="1" style="stop-color:#df1ac5"></stop>
  </linearGradient>
  <path class="st-1a2420" d="M25,13.4c-0.4,0-0.7-0.3-0.7-0.7v-2.5l-0.2-0.1c-1.5-0.4-2.5-1.7-2.5-3.2c0-1.8,1.5-3.3,3.3-3.3  c1.8,0,3.3,1.5,3.3,3.3c0,1.5-1,2.8-2.5,3.2l-0.2,0.1v2.5C25.7,13.1,25.4,13.4,25,13.4z M25,4.9c-1.1,0-2,0.9-2,2s0.9,2,2,2  s2-0.9,2-2S26.1,4.9,25,4.9z M37.4,18c-0.2,0-0.4-0.1-0.5-0.2c-0.3-0.3-0.3-0.7,0-1l1.8-1.8l-0.1-0.2c-0.7-1.3-0.5-3,0.5-4  c0.6-0.6,1.5-1,2.4-1c0.9,0,1.7,0.3,2.4,1c0.6,0.6,1,1.5,1,2.4s-0.3,1.7-1,2.4c-0.6,0.6-1.5,1-2.4,1c-0.6,0-1.2-0.2-1.7-0.4  l-0.2-0.1l-1.8,1.8C37.8,18,37.6,18,37.4,18z M41.5,11.3c-0.5,0-1,0.2-1.4,0.6c-0.8,0.8-0.8,2,0,2.8c0.4,0.4,0.9,0.6,1.4,0.6  c0.5,0,1-0.2,1.4-0.6c0.4-0.4,0.6-0.9,0.6-1.4s-0.2-1-0.6-1.4C42.5,11.5,42,11.3,41.5,11.3z M45.7,33.1c-1.5,0-2.8-1-3.2-2.5  l-0.1-0.2h-2.5c-0.4,0-0.7-0.3-0.7-0.7s0.3-0.7,0.7-0.7h2.5l0.1-0.2c0.4-1.5,1.7-2.5,3.2-2.5c1.8,0,3.3,1.5,3.3,3.3  C49,31.6,47.5,33.1,45.7,33.1z M45.7,27.8c-1.1,0-2,0.9-2,2s0.9,2,2,2s2-0.9,2-2S46.7,27.8,45.7,27.8z M4.3,33C2.5,33,1,31.5,1,29.7  s1.5-3.3,3.3-3.3c1.5,0,2.8,1,3.2,2.5L7.6,29h2.5c0.4,0,0.7,0.3,0.7,0.7s-0.3,0.7-0.7,0.7H7.6l-0.1,0.2C7.2,32,5.9,33,4.3,33z   M4.3,27.7c-1.1,0-2,0.9-2,2s0.9,2,2,2s2-0.9,2-2S5.4,27.7,4.3,27.7z M12.5,17.9c-0.2,0-0.4-0.1-0.5-0.2L10.3,16l-0.2,0.1  c-0.5,0.3-1.1,0.4-1.7,0.4c-0.9,0-1.7-0.3-2.4-1c-0.6-0.6-1-1.5-1-2.4c0-0.9,0.3-1.7,1-2.4c0.6-0.6,1.5-1,2.4-1s1.7,0.3,2.4,1  c0.6,0.6,1,1.5,1,2.4c0,0.6-0.2,1.2-0.4,1.7L11.3,15l1.8,1.8c0.3,0.3,0.3,0.7,0,1C12.9,17.9,12.7,17.9,12.5,17.9z M8.5,11.2  c-0.5,0-1,0.2-1.4,0.6c-0.4,0.4-0.6,0.9-0.6,1.4s0.2,1,0.6,1.4c0.4,0.4,0.9,0.6,1.4,0.6s1-0.2,1.4-0.6c0.4-0.4,0.6-0.9,0.6-1.4  c0-0.5-0.2-1-0.6-1.4C9.5,11.4,9,11.2,8.5,11.2z"></path>
</svg>